<?xml version="1.0" encoding="utf-8" standalone="no"?>
<!DOCTYPE svg PUBLIC "-//W3C//DTD SVG 1.1//EN"
  "http://www.w3.org/Graphics/SVG/1.1/DTD/svg11.dtd">
<!-- Created with matplotlib (https://matplotlib.org/) -->
<svg height="136.194075pt" version="1.1" viewBox="0 0 418.453409 136.194075" width="418.453409pt" xmlns="http://www.w3.org/2000/svg" xmlns:xlink="http://www.w3.org/1999/xlink">
 <defs>
  <style type="text/css">
*{stroke-linecap:butt;stroke-linejoin:round;}
  </style>
 </defs>
 <g id="figure_1">
  <g id="patch_1">
   <path d="M 0 136.194075 
L 418.453409 136.194075 
L 418.453409 0 
L 0 0 
z
" style="fill:none;"/>
  </g>
  <g id="axes_1">
   <g id="line2d_1">
    <path clip-path="url(#p62715d2be2)" d="M 15.993337 101.632316 
L 25.249481 115.872039 
L 34.505625 123.617925 
L 43.761769 122.272439 
L 53.017913 123.972984 
L 62.274057 121.848238 
L 71.530201 106.420003 
L 80.786345 94.011635 
L 90.042489 83.843874 
L 99.298633 81.713522 
L 108.554777 66.161949 
L 117.810921 37.189158 
L 127.067064 23.551166 
L 136.323208 23.752988 
L 145.579352 48.846297 
L 154.835496 66.842167 
L 164.09164 81.89292 
L 173.347784 94.04714 
L 182.603928 100.06632 
L 191.860072 101.703328 
" style="fill:none;stroke:#000000;stroke-linecap:square;stroke-width:2;"/>
   </g>
   <g id="line2d_2">
    <path clip-path="url(#p62715d2be2)" d="M 15.993337 101.632316 
L 15.993337 101.632316 
" style="fill:none;stroke:#ff0000;stroke-dasharray:5.55,2.4;stroke-dashoffset:0;stroke-width:1.5;"/>
    <defs>
     <path d="M 0 3 
C 0.795609 3 1.55874 2.683901 2.12132 2.12132 
C 2.683901 1.55874 3 0.795609 3 0 
C 3 -0.795609 2.683901 -1.55874 2.12132 -2.12132 
C 1.55874 -2.683901 0.795609 -3 0 -3 
C -0.795609 -3 -1.55874 -2.683901 -2.12132 -2.12132 
C -2.683901 -1.55874 -3 -0.795609 -3 0 
C -3 0.795609 -2.683901 1.55874 -2.12132 2.12132 
C -1.55874 2.683901 -0.795609 3 0 3 
z
" id="m6c443286d4" style="stroke:#ff0000;"/>
    </defs>
    <g clip-path="url(#p62715d2be2)">
     <use style="fill:#ff0000;stroke:#ff0000;" x="15.993337" xlink:href="#m6c443286d4" y="101.632316"/>
     <use style="fill:#ff0000;stroke:#ff0000;" x="15.993337" xlink:href="#m6c443286d4" y="101.632316"/>
    </g>
   </g>
   <g id="line2d_3">
    <path clip-path="url(#p62715d2be2)" d="M 25.249481 115.872039 
L 25.249481 115.872039 
" style="fill:none;stroke:#ff0000;stroke-dasharray:5.55,2.4;stroke-dashoffset:0;stroke-width:1.5;"/>
    <g clip-path="url(#p62715d2be2)">
     <use style="fill:#ff0000;stroke:#ff0000;" x="25.249481" xlink:href="#m6c443286d4" y="115.872039"/>
     <use style="fill:#ff0000;stroke:#ff0000;" x="25.249481" xlink:href="#m6c443286d4" y="115.872039"/>
    </g>
   </g>
   <g id="line2d_4">
    <path clip-path="url(#p62715d2be2)" d="M 34.505625 123.617925 
L 34.505625 123.617925 
" style="fill:none;stroke:#ff0000;stroke-dasharray:5.55,2.4;stroke-dashoffset:0;stroke-width:1.5;"/>
    <g clip-path="url(#p62715d2be2)">
     <use style="fill:#ff0000;stroke:#ff0000;" x="34.505625" xlink:href="#m6c443286d4" y="123.617925"/>
     <use style="fill:#ff0000;stroke:#ff0000;" x="34.505625" xlink:href="#m6c443286d4" y="123.617925"/>
    </g>
   </g>
   <g id="line2d_5">
    <path clip-path="url(#p62715d2be2)" d="M 43.761769 122.272439 
L 43.761769 122.272439 
" style="fill:none;stroke:#808080;stroke-dasharray:5.55,2.4;stroke-dashoffset:0;stroke-width:1.5;"/>
    <defs>
     <path d="M 0 3 
C 0.795609 3 1.55874 2.683901 2.12132 2.12132 
C 2.683901 1.55874 3 0.795609 3 0 
C 3 -0.795609 2.683901 -1.55874 2.12132 -2.12132 
C 1.55874 -2.683901 0.795609 -3 0 -3 
C -0.795609 -3 -1.55874 -2.683901 -2.12132 -2.12132 
C -2.683901 -1.55874 -3 -0.795609 -3 0 
C -3 0.795609 -2.683901 1.55874 -2.12132 2.12132 
C -1.55874 2.683901 -0.795609 3 0 3 
z
" id="m0a799378e7" style="stroke:#808080;"/>
    </defs>
    <g clip-path="url(#p62715d2be2)">
     <use style="fill:#808080;stroke:#808080;" x="43.761769" xlink:href="#m0a799378e7" y="122.272439"/>
     <use style="fill:#808080;stroke:#808080;" x="43.761769" xlink:href="#m0a799378e7" y="122.272439"/>
    </g>
   </g>
   <g id="line2d_6">
    <path clip-path="url(#p62715d2be2)" d="M 53.017913 123.972984 
L 53.017913 123.972984 
" style="fill:none;stroke:#ff0000;stroke-dasharray:5.55,2.4;stroke-dashoffset:0;stroke-width:1.5;"/>
    <g clip-path="url(#p62715d2be2)">
     <use style="fill:#ff0000;stroke:#ff0000;" x="53.017913" xlink:href="#m6c443286d4" y="123.972984"/>
     <use style="fill:#ff0000;stroke:#ff0000;" x="53.017913" xlink:href="#m6c443286d4" y="123.972984"/>
    </g>
   </g>
   <g id="line2d_7">
    <path clip-path="url(#p62715d2be2)" d="M 62.274057 121.848238 
L 62.274057 121.848238 
" style="fill:none;stroke:#ff0000;stroke-dasharray:5.55,2.4;stroke-dashoffset:0;stroke-width:1.5;"/>
    <g clip-path="url(#p62715d2be2)">
     <use style="fill:#ff0000;stroke:#ff0000;" x="62.274057" xlink:href="#m6c443286d4" y="121.848238"/>
     <use style="fill:#ff0000;stroke:#ff0000;" x="62.274057" xlink:href="#m6c443286d4" y="121.848238"/>
    </g>
   </g>
   <g id="line2d_8">
    <path clip-path="url(#p62715d2be2)" d="M 71.530201 106.420003 
L 71.530201 106.420003 
" style="fill:none;stroke:#808080;stroke-dasharray:5.55,2.4;stroke-dashoffset:0;stroke-width:1.5;"/>
    <g clip-path="url(#p62715d2be2)">
     <use style="fill:#808080;stroke:#808080;" x="71.530201" xlink:href="#m0a799378e7" y="106.420003"/>
     <use style="fill:#808080;stroke:#808080;" x="71.530201" xlink:href="#m0a799378e7" y="106.420003"/>
    </g>
   </g>
   <g id="line2d_9">
    <path clip-path="url(#p62715d2be2)" d="M 80.786345 94.011635 
L 80.786345 94.011635 
" style="fill:none;stroke:#808080;stroke-dasharray:5.55,2.4;stroke-dashoffset:0;stroke-width:1.5;"/>
    <g clip-path="url(#p62715d2be2)">
     <use style="fill:#808080;stroke:#808080;" x="80.786345" xlink:href="#m0a799378e7" y="94.011635"/>
     <use style="fill:#808080;stroke:#808080;" x="80.786345" xlink:href="#m0a799378e7" y="94.011635"/>
    </g>
   </g>
   <g id="line2d_10">
    <path clip-path="url(#p62715d2be2)" d="M 90.042489 83.843874 
L 90.042489 83.843874 
" style="fill:none;stroke:#808080;stroke-dasharray:5.55,2.4;stroke-dashoffset:0;stroke-width:1.5;"/>
    <g clip-path="url(#p62715d2be2)">
     <use style="fill:#808080;stroke:#808080;" x="90.042489" xlink:href="#m0a799378e7" y="83.843874"/>
     <use style="fill:#808080;stroke:#808080;" x="90.042489" xlink:href="#m0a799378e7" y="83.843874"/>
    </g>
   </g>
   <g id="line2d_11">
    <path clip-path="url(#p62715d2be2)" d="M 99.298633 81.713522 
L 99.298633 81.713522 
" style="fill:none;stroke:#808080;stroke-dasharray:5.55,2.4;stroke-dashoffset:0;stroke-width:1.5;"/>
    <g clip-path="url(#p62715d2be2)">
     <use style="fill:#808080;stroke:#808080;" x="99.298633" xlink:href="#m0a799378e7" y="81.713522"/>
     <use style="fill:#808080;stroke:#808080;" x="99.298633" xlink:href="#m0a799378e7" y="81.713522"/>
    </g>
   </g>
   <g id="line2d_12">
    <path clip-path="url(#p62715d2be2)" d="M 108.554777 66.161949 
L 108.554777 66.161949 
" style="fill:none;stroke:#0000ff;stroke-dasharray:5.55,2.4;stroke-dashoffset:0;stroke-width:1.5;"/>
    <defs>
     <path d="M 0 3 
C 0.795609 3 1.55874 2.683901 2.12132 2.12132 
C 2.683901 1.55874 3 0.795609 3 0 
C 3 -0.795609 2.683901 -1.55874 2.12132 -2.12132 
C 1.55874 -2.683901 0.795609 -3 0 -3 
C -0.795609 -3 -1.55874 -2.683901 -2.12132 -2.12132 
C -2.683901 -1.55874 -3 -0.795609 -3 0 
C -3 0.795609 -2.683901 1.55874 -2.12132 2.12132 
C -1.55874 2.683901 -0.795609 3 0 3 
z
" id="m4f2528e79b" style="stroke:#0000ff;"/>
    </defs>
    <g clip-path="url(#p62715d2be2)">
     <use style="fill:#0000ff;stroke:#0000ff;" x="108.554777" xlink:href="#m4f2528e79b" y="66.161949"/>
     <use style="fill:#0000ff;stroke:#0000ff;" x="108.554777" xlink:href="#m4f2528e79b" y="66.161949"/>
    </g>
   </g>
   <g id="line2d_13">
    <path clip-path="url(#p62715d2be2)" d="M 108.554777 66.161949 
L 108.554777 66.161949 
" style="fill:none;stroke:#0000ff;stroke-dasharray:5.55,2.4;stroke-dashoffset:0;stroke-width:1.5;"/>
    <g clip-path="url(#p62715d2be2)">
     <use style="fill:#0000ff;stroke:#0000ff;" x="108.554777" xlink:href="#m4f2528e79b" y="66.161949"/>
     <use style="fill:#0000ff;stroke:#0000ff;" x="108.554777" xlink:href="#m4f2528e79b" y="66.161949"/>
    </g>
   </g>
   <g id="line2d_14">
    <path clip-path="url(#p62715d2be2)" d="M 117.810921 37.189158 
L 117.810921 37.189158 
" style="fill:none;stroke:#808080;stroke-dasharray:5.55,2.4;stroke-dashoffset:0;stroke-width:1.5;"/>
    <g clip-path="url(#p62715d2be2)">
     <use style="fill:#808080;stroke:#808080;" x="117.810921" xlink:href="#m0a799378e7" y="37.189158"/>
     <use style="fill:#808080;stroke:#808080;" x="117.810921" xlink:href="#m0a799378e7" y="37.189158"/>
    </g>
   </g>
   <g id="line2d_15">
    <path clip-path="url(#p62715d2be2)" d="M 127.067064 23.551166 
L 127.067064 23.551166 
" style="fill:none;stroke:#808080;stroke-dasharray:5.55,2.4;stroke-dashoffset:0;stroke-width:1.5;"/>
    <g clip-path="url(#p62715d2be2)">
     <use style="fill:#808080;stroke:#808080;" x="127.067064" xlink:href="#m0a799378e7" y="23.551166"/>
     <use style="fill:#808080;stroke:#808080;" x="127.067064" xlink:href="#m0a799378e7" y="23.551166"/>
    </g>
   </g>
   <g id="line2d_16">
    <path clip-path="url(#p62715d2be2)" d="M 136.323208 23.752988 
L 136.323208 23.752988 
" style="fill:none;stroke:#808080;stroke-dasharray:5.55,2.4;stroke-dashoffset:0;stroke-width:1.5;"/>
    <g clip-path="url(#p62715d2be2)">
     <use style="fill:#808080;stroke:#808080;" x="136.323208" xlink:href="#m0a799378e7" y="23.752988"/>
     <use style="fill:#808080;stroke:#808080;" x="136.323208" xlink:href="#m0a799378e7" y="23.752988"/>
    </g>
   </g>
   <g id="line2d_17">
    <path clip-path="url(#p62715d2be2)" d="M 145.579352 48.846297 
L 145.579352 48.846297 
" style="fill:none;stroke:#808080;stroke-dasharray:5.55,2.4;stroke-dashoffset:0;stroke-width:1.5;"/>
    <g clip-path="url(#p62715d2be2)">
     <use style="fill:#808080;stroke:#808080;" x="145.579352" xlink:href="#m0a799378e7" y="48.846297"/>
     <use style="fill:#808080;stroke:#808080;" x="145.579352" xlink:href="#m0a799378e7" y="48.846297"/>
    </g>
   </g>
   <g id="line2d_18">
    <path clip-path="url(#p62715d2be2)" d="M 154.835496 66.842167 
L 154.835496 66.842167 
" style="fill:none;stroke:#808080;stroke-dasharray:5.55,2.4;stroke-dashoffset:0;stroke-width:1.5;"/>
    <g clip-path="url(#p62715d2be2)">
     <use style="fill:#808080;stroke:#808080;" x="154.835496" xlink:href="#m0a799378e7" y="66.842167"/>
     <use style="fill:#808080;stroke:#808080;" x="154.835496" xlink:href="#m0a799378e7" y="66.842167"/>
    </g>
   </g>
   <g id="line2d_19">
    <path clip-path="url(#p62715d2be2)" d="M 164.09164 81.89292 
L 164.09164 81.89292 
" style="fill:none;stroke:#808080;stroke-dasharray:5.55,2.4;stroke-dashoffset:0;stroke-width:1.5;"/>
    <g clip-path="url(#p62715d2be2)">
     <use style="fill:#808080;stroke:#808080;" x="164.09164" xlink:href="#m0a799378e7" y="81.89292"/>
     <use style="fill:#808080;stroke:#808080;" x="164.09164" xlink:href="#m0a799378e7" y="81.89292"/>
    </g>
   </g>
   <g id="line2d_20">
    <path clip-path="url(#p62715d2be2)" d="M 173.347784 94.04714 
L 173.347784 94.04714 
" style="fill:none;stroke:#808080;stroke-dasharray:5.55,2.4;stroke-dashoffset:0;stroke-width:1.5;"/>
    <g clip-path="url(#p62715d2be2)">
     <use style="fill:#808080;stroke:#808080;" x="173.347784" xlink:href="#m0a799378e7" y="94.04714"/>
     <use style="fill:#808080;stroke:#808080;" x="173.347784" xlink:href="#m0a799378e7" y="94.04714"/>
    </g>
   </g>
   <g id="line2d_21">
    <path clip-path="url(#p62715d2be2)" d="M 182.603928 100.06632 
L 182.603928 100.06632 
" style="fill:none;stroke:#808080;stroke-dasharray:5.55,2.4;stroke-dashoffset:0;stroke-width:1.5;"/>
    <g clip-path="url(#p62715d2be2)">
     <use style="fill:#808080;stroke:#808080;" x="182.603928" xlink:href="#m0a799378e7" y="100.06632"/>
     <use style="fill:#808080;stroke:#808080;" x="182.603928" xlink:href="#m0a799378e7" y="100.06632"/>
    </g>
   </g>
   <g id="line2d_22">
    <path clip-path="url(#p62715d2be2)" d="M 191.860072 101.703328 
L 191.860072 101.703328 
" style="fill:none;stroke:#0000ff;stroke-dasharray:5.55,2.4;stroke-dashoffset:0;stroke-width:1.5;"/>
    <g clip-path="url(#p62715d2be2)">
     <use style="fill:#0000ff;stroke:#0000ff;" x="191.860072" xlink:href="#m4f2528e79b" y="101.703328"/>
     <use style="fill:#0000ff;stroke:#0000ff;" x="191.860072" xlink:href="#m4f2528e79b" y="101.703328"/>
    </g>
   </g>
   <g id="line2d_23">
    <path clip-path="url(#p62715d2be2)" d="M 191.860072 101.703328 
L 191.860072 101.703328 
" style="fill:none;stroke:#0000ff;stroke-dasharray:5.55,2.4;stroke-dashoffset:0;stroke-width:1.5;"/>
    <g clip-path="url(#p62715d2be2)">
     <use style="fill:#0000ff;stroke:#0000ff;" x="191.860072" xlink:href="#m4f2528e79b" y="101.703328"/>
     <use style="fill:#0000ff;stroke:#0000ff;" x="191.860072" xlink:href="#m4f2528e79b" y="101.703328"/>
    </g>
   </g>
   <g id="line2d_24">
    <path clip-path="url(#p62715d2be2)" d="M 191.860072 101.703328 
L 191.860072 101.703328 
" style="fill:none;stroke:#0000ff;stroke-dasharray:5.55,2.4;stroke-dashoffset:0;stroke-width:1.5;"/>
    <g clip-path="url(#p62715d2be2)">
     <use style="fill:#0000ff;stroke:#0000ff;" x="191.860072" xlink:href="#m4f2528e79b" y="101.703328"/>
     <use style="fill:#0000ff;stroke:#0000ff;" x="191.860072" xlink:href="#m4f2528e79b" y="101.703328"/>
    </g>
   </g>
   <g id="text_1">
    <!-- Original SRP time series -->
    <defs>
     <path d="M 39.40625 66.21875 
Q 28.65625 66.21875 22.328125 58.203125 
Q 16.015625 50.203125 16.015625 36.375 
Q 16.015625 22.609375 22.328125 14.59375 
Q 28.65625 6.59375 39.40625 6.59375 
Q 50.140625 6.59375 56.421875 14.59375 
Q 62.703125 22.609375 62.703125 36.375 
Q 62.703125 50.203125 56.421875 58.203125 
Q 50.140625 66.21875 39.40625 66.21875 
z
M 39.40625 74.21875 
Q 54.734375 74.21875 63.90625 63.9375 
Q 73.09375 53.65625 73.09375 36.375 
Q 73.09375 19.140625 63.90625 8.859375 
Q 54.734375 -1.421875 39.40625 -1.421875 
Q 24.03125 -1.421875 14.8125 8.828125 
Q 5.609375 19.09375 5.609375 36.375 
Q 5.609375 53.65625 14.8125 63.9375 
Q 24.03125 74.21875 39.40625 74.21875 
z
" id="DejaVuSans-79"/>
     <path d="M 41.109375 46.296875 
Q 39.59375 47.171875 37.8125 47.578125 
Q 36.03125 48 33.890625 48 
Q 26.265625 48 22.1875 43.046875 
Q 18.109375 38.09375 18.109375 28.8125 
L 18.109375 0 
L 9.078125 0 
L 9.078125 54.6875 
L 18.109375 54.6875 
L 18.109375 46.1875 
Q 20.953125 51.171875 25.484375 53.578125 
Q 30.03125 56 36.53125 56 
Q 37.453125 56 38.578125 55.875 
Q 39.703125 55.765625 41.0625 55.515625 
z
" id="DejaVuSans-114"/>
     <path d="M 9.421875 54.6875 
L 18.40625 54.6875 
L 18.40625 0 
L 9.421875 0 
z
M 9.421875 75.984375 
L 18.40625 75.984375 
L 18.40625 64.59375 
L 9.421875 64.59375 
z
" id="DejaVuSans-105"/>
     <path d="M 45.40625 27.984375 
Q 45.40625 37.75 41.375 43.109375 
Q 37.359375 48.484375 30.078125 48.484375 
Q 22.859375 48.484375 18.828125 43.109375 
Q 14.796875 37.75 14.796875 27.984375 
Q 14.796875 18.265625 18.828125 12.890625 
Q 22.859375 7.515625 30.078125 7.515625 
Q 37.359375 7.515625 41.375 12.890625 
Q 45.40625 18.265625 45.40625 27.984375 
z
M 54.390625 6.78125 
Q 54.390625 -7.171875 48.1875 -13.984375 
Q 42 -20.796875 29.203125 -20.796875 
Q 24.46875 -20.796875 20.265625 -20.09375 
Q 16.0625 -19.390625 12.109375 -17.921875 
L 12.109375 -9.1875 
Q 16.0625 -11.328125 19.921875 -12.34375 
Q 23.78125 -13.375 27.78125 -13.375 
Q 36.625 -13.375 41.015625 -8.765625 
Q 45.40625 -4.15625 45.40625 5.171875 
L 45.40625 9.625 
Q 42.625 4.78125 38.28125 2.390625 
Q 33.9375 0 27.875 0 
Q 17.828125 0 11.671875 7.65625 
Q 5.515625 15.328125 5.515625 27.984375 
Q 5.515625 40.671875 11.671875 48.328125 
Q 17.828125 56 27.875 56 
Q 33.9375 56 38.28125 53.609375 
Q 42.625 51.21875 45.40625 46.390625 
L 45.40625 54.6875 
L 54.390625 54.6875 
z
" id="DejaVuSans-103"/>
     <path d="M 54.890625 33.015625 
L 54.890625 0 
L 45.90625 0 
L 45.90625 32.71875 
Q 45.90625 40.484375 42.875 44.328125 
Q 39.84375 48.1875 33.796875 48.1875 
Q 26.515625 48.1875 22.3125 43.546875 
Q 18.109375 38.921875 18.109375 30.90625 
L 18.109375 0 
L 9.078125 0 
L 9.078125 54.6875 
L 18.109375 54.6875 
L 18.109375 46.1875 
Q 21.34375 51.125 25.703125 53.5625 
Q 30.078125 56 35.796875 56 
Q 45.21875 56 50.046875 50.171875 
Q 54.890625 44.34375 54.890625 33.015625 
z
" id="DejaVuSans-110"/>
     <path d="M 34.28125 27.484375 
Q 23.390625 27.484375 19.1875 25 
Q 14.984375 22.515625 14.984375 16.5 
Q 14.984375 11.71875 18.140625 8.90625 
Q 21.296875 6.109375 26.703125 6.109375 
Q 34.1875 6.109375 38.703125 11.40625 
Q 43.21875 16.703125 43.21875 25.484375 
L 43.21875 27.484375 
z
M 52.203125 31.203125 
L 52.203125 0 
L 43.21875 0 
L 43.21875 8.296875 
Q 40.140625 3.328125 35.546875 0.953125 
Q 30.953125 -1.421875 24.3125 -1.421875 
Q 15.921875 -1.421875 10.953125 3.296875 
Q 6 8.015625 6 15.921875 
Q 6 25.140625 12.171875 29.828125 
Q 18.359375 34.515625 30.609375 34.515625 
L 43.21875 34.515625 
L 43.21875 35.40625 
Q 43.21875 41.609375 39.140625 45 
Q 35.0625 48.390625 27.6875 48.390625 
Q 23 48.390625 18.546875 47.265625 
Q 14.109375 46.140625 10.015625 43.890625 
L 10.015625 52.203125 
Q 14.9375 54.109375 19.578125 55.046875 
Q 24.21875 56 28.609375 56 
Q 40.484375 56 46.34375 49.84375 
Q 52.203125 43.703125 52.203125 31.203125 
z
" id="DejaVuSans-97"/>
     <path d="M 9.421875 75.984375 
L 18.40625 75.984375 
L 18.40625 0 
L 9.421875 0 
z
" id="DejaVuSans-108"/>
     <path id="DejaVuSans-32"/>
     <path d="M 53.515625 70.515625 
L 53.515625 60.890625 
Q 47.90625 63.578125 42.921875 64.890625 
Q 37.9375 66.21875 33.296875 66.21875 
Q 25.25 66.21875 20.875 63.09375 
Q 16.5 59.96875 16.5 54.203125 
Q 16.5 49.359375 19.40625 46.890625 
Q 22.3125 44.4375 30.421875 42.921875 
L 36.375 41.703125 
Q 47.40625 39.59375 52.65625 34.296875 
Q 57.90625 29 57.90625 20.125 
Q 57.90625 9.515625 50.796875 4.046875 
Q 43.703125 -1.421875 29.984375 -1.421875 
Q 24.8125 -1.421875 18.96875 -0.25 
Q 13.140625 0.921875 6.890625 3.21875 
L 6.890625 13.375 
Q 12.890625 10.015625 18.65625 8.296875 
Q 24.421875 6.59375 29.984375 6.59375 
Q 38.421875 6.59375 43.015625 9.90625 
Q 47.609375 13.234375 47.609375 19.390625 
Q 47.609375 24.75 44.3125 27.78125 
Q 41.015625 30.8125 33.5 32.328125 
L 27.484375 33.5 
Q 16.453125 35.6875 11.515625 40.375 
Q 6.59375 45.0625 6.59375 53.421875 
Q 6.59375 63.09375 13.40625 68.65625 
Q 20.21875 74.21875 32.171875 74.21875 
Q 37.3125 74.21875 42.625 73.28125 
Q 47.953125 72.359375 53.515625 70.515625 
z
" id="DejaVuSans-83"/>
     <path d="M 44.390625 34.1875 
Q 47.5625 33.109375 50.5625 29.59375 
Q 53.5625 26.078125 56.59375 19.921875 
L 66.609375 0 
L 56 0 
L 46.6875 18.703125 
Q 43.0625 26.03125 39.671875 28.421875 
Q 36.28125 30.8125 30.421875 30.8125 
L 19.671875 30.8125 
L 19.671875 0 
L 9.8125 0 
L 9.8125 72.90625 
L 32.078125 72.90625 
Q 44.578125 72.90625 50.734375 67.671875 
Q 56.890625 62.453125 56.890625 51.90625 
Q 56.890625 45.015625 53.6875 40.46875 
Q 50.484375 35.9375 44.390625 34.1875 
z
M 19.671875 64.796875 
L 19.671875 38.921875 
L 32.078125 38.921875 
Q 39.203125 38.921875 42.84375 42.21875 
Q 46.484375 45.515625 46.484375 51.90625 
Q 46.484375 58.296875 42.84375 61.546875 
Q 39.203125 64.796875 32.078125 64.796875 
z
" id="DejaVuSans-82"/>
     <path d="M 19.671875 64.796875 
L 19.671875 37.40625 
L 32.078125 37.40625 
Q 38.96875 37.40625 42.71875 40.96875 
Q 46.484375 44.53125 46.484375 51.125 
Q 46.484375 57.671875 42.71875 61.234375 
Q 38.96875 64.796875 32.078125 64.796875 
z
M 9.8125 72.90625 
L 32.078125 72.90625 
Q 44.34375 72.90625 50.609375 67.359375 
Q 56.890625 61.8125 56.890625 51.125 
Q 56.890625 40.328125 50.609375 34.8125 
Q 44.34375 29.296875 32.078125 29.296875 
L 19.671875 29.296875 
L 19.671875 0 
L 9.8125 0 
z
" id="DejaVuSans-80"/>
     <path d="M 18.3125 70.21875 
L 18.3125 54.6875 
L 36.8125 54.6875 
L 36.8125 47.703125 
L 18.3125 47.703125 
L 18.3125 18.015625 
Q 18.3125 11.328125 20.140625 9.421875 
Q 21.96875 7.515625 27.59375 7.515625 
L 36.8125 7.515625 
L 36.8125 0 
L 27.59375 0 
Q 17.1875 0 13.234375 3.875 
Q 9.28125 7.765625 9.28125 18.015625 
L 9.28125 47.703125 
L 2.6875 47.703125 
L 2.6875 54.6875 
L 9.28125 54.6875 
L 9.28125 70.21875 
z
" id="DejaVuSans-116"/>
     <path d="M 52 44.1875 
Q 55.375 50.25 60.0625 53.125 
Q 64.75 56 71.09375 56 
Q 79.640625 56 84.28125 50.015625 
Q 88.921875 44.046875 88.921875 33.015625 
L 88.921875 0 
L 79.890625 0 
L 79.890625 32.71875 
Q 79.890625 40.578125 77.09375 44.375 
Q 74.3125 48.1875 68.609375 48.1875 
Q 61.625 48.1875 57.5625 43.546875 
Q 53.515625 38.921875 53.515625 30.90625 
L 53.515625 0 
L 44.484375 0 
L 44.484375 32.71875 
Q 44.484375 40.625 41.703125 44.40625 
Q 38.921875 48.1875 33.109375 48.1875 
Q 26.21875 48.1875 22.15625 43.53125 
Q 18.109375 38.875 18.109375 30.90625 
L 18.109375 0 
L 9.078125 0 
L 9.078125 54.6875 
L 18.109375 54.6875 
L 18.109375 46.1875 
Q 21.1875 51.21875 25.484375 53.609375 
Q 29.78125 56 35.6875 56 
Q 41.65625 56 45.828125 52.96875 
Q 50 49.953125 52 44.1875 
z
" id="DejaVuSans-109"/>
     <path d="M 56.203125 29.59375 
L 56.203125 25.203125 
L 14.890625 25.203125 
Q 15.484375 15.921875 20.484375 11.0625 
Q 25.484375 6.203125 34.421875 6.203125 
Q 39.59375 6.203125 44.453125 7.46875 
Q 49.3125 8.734375 54.109375 11.28125 
L 54.109375 2.78125 
Q 49.265625 0.734375 44.1875 -0.34375 
Q 39.109375 -1.421875 33.890625 -1.421875 
Q 20.796875 -1.421875 13.15625 6.1875 
Q 5.515625 13.8125 5.515625 26.8125 
Q 5.515625 40.234375 12.765625 48.109375 
Q 20.015625 56 32.328125 56 
Q 43.359375 56 49.78125 48.890625 
Q 56.203125 41.796875 56.203125 29.59375 
z
M 47.21875 32.234375 
Q 47.125 39.59375 43.09375 43.984375 
Q 39.0625 48.390625 32.421875 48.390625 
Q 24.90625 48.390625 20.390625 44.140625 
Q 15.875 39.890625 15.1875 32.171875 
z
" id="DejaVuSans-101"/>
     <path d="M 44.28125 53.078125 
L 44.28125 44.578125 
Q 40.484375 46.53125 36.375 47.5 
Q 32.28125 48.484375 27.875 48.484375 
Q 21.1875 48.484375 17.84375 46.4375 
Q 14.5 44.390625 14.5 40.28125 
Q 14.5 37.15625 16.890625 35.375 
Q 19.28125 33.59375 26.515625 31.984375 
L 29.59375 31.296875 
Q 39.15625 29.25 43.1875 25.515625 
Q 47.21875 21.78125 47.21875 15.09375 
Q 47.21875 7.46875 41.1875 3.015625 
Q 35.15625 -1.421875 24.609375 -1.421875 
Q 20.21875 -1.421875 15.453125 -0.5625 
Q 10.6875 0.296875 5.421875 2 
L 5.421875 11.28125 
Q 10.40625 8.6875 15.234375 7.390625 
Q 20.0625 6.109375 24.8125 6.109375 
Q 31.15625 6.109375 34.5625 8.28125 
Q 37.984375 10.453125 37.984375 14.40625 
Q 37.984375 18.0625 35.515625 20.015625 
Q 33.0625 21.96875 24.703125 23.78125 
L 21.578125 24.515625 
Q 13.234375 26.265625 9.515625 29.90625 
Q 5.8125 33.546875 5.8125 39.890625 
Q 5.8125 47.609375 11.28125 51.796875 
Q 16.75 56 26.8125 56 
Q 31.78125 56 36.171875 55.265625 
Q 40.578125 54.546875 44.28125 53.078125 
z
" id="DejaVuSans-115"/>
    </defs>
    <g transform="translate(31.807642 16.318125)scale(0.12 -0.12)">
     <use xlink:href="#DejaVuSans-79"/>
     <use x="78.710938" xlink:href="#DejaVuSans-114"/>
     <use x="119.824219" xlink:href="#DejaVuSans-105"/>
     <use x="147.607422" xlink:href="#DejaVuSans-103"/>
     <use x="211.083984" xlink:href="#DejaVuSans-105"/>
     <use x="238.867188" xlink:href="#DejaVuSans-110"/>
     <use x="302.246094" xlink:href="#DejaVuSans-97"/>
     <use x="363.525391" xlink:href="#DejaVuSans-108"/>
     <use x="391.308594" xlink:href="#DejaVuSans-32"/>
     <use x="423.095703" xlink:href="#DejaVuSans-83"/>
     <use x="486.572266" xlink:href="#DejaVuSans-82"/>
     <use x="556.054688" xlink:href="#DejaVuSans-80"/>
     <use x="616.357422" xlink:href="#DejaVuSans-32"/>
     <use x="648.144531" xlink:href="#DejaVuSans-116"/>
     <use x="687.353516" xlink:href="#DejaVuSans-105"/>
     <use x="715.136719" xlink:href="#DejaVuSans-109"/>
     <use x="812.548828" xlink:href="#DejaVuSans-101"/>
     <use x="874.072266" xlink:href="#DejaVuSans-32"/>
     <use x="905.859375" xlink:href="#DejaVuSans-115"/>
     <use x="957.958984" xlink:href="#DejaVuSans-101"/>
     <use x="1019.482422" xlink:href="#DejaVuSans-114"/>
     <use x="1060.595703" xlink:href="#DejaVuSans-105"/>
     <use x="1088.378906" xlink:href="#DejaVuSans-101"/>
     <use x="1149.902344" xlink:href="#DejaVuSans-115"/>
    </g>
   </g>
  </g>
  <g id="axes_2">
   <g id="line2d_25">
    <path clip-path="url(#pa238e16085)" d="M 226.593337 114.671397 
L 235.849481 123.327989 
L 245.105625 123.972984 
L 254.361769 107.306055 
L 263.617913 94.765014 
L 272.874057 84.488537 
L 282.130201 82.335406 
L 291.386345 66.617553 
L 300.642489 66.617553 
L 309.898633 37.334979 
L 319.154777 23.551166 
L 328.410921 23.755146 
L 337.667064 49.116758 
L 346.923208 67.305044 
L 356.179352 82.516723 
L 365.435496 94.800899 
L 374.69164 100.884437 
L 383.947784 102.538948 
L 393.203928 102.538948 
L 402.460072 102.538948 
" style="fill:none;stroke:#000000;stroke-linecap:square;stroke-width:2;"/>
   </g>
   <g id="line2d_26">
    <path clip-path="url(#pa238e16085)" d="M 226.593337 114.671397 
L 226.593337 114.671397 
" style="fill:none;stroke:#ff0000;stroke-dasharray:5.55,2.4;stroke-dashoffset:0;stroke-width:1.5;"/>
    <g clip-path="url(#pa238e16085)">
     <use style="fill:#ff0000;stroke:#ff0000;" x="226.593337" xlink:href="#m6c443286d4" y="114.671397"/>
     <use style="fill:#ff0000;stroke:#ff0000;" x="226.593337" xlink:href="#m6c443286d4" y="114.671397"/>
    </g>
   </g>
   <g id="line2d_27">
    <path clip-path="url(#pa238e16085)" d="M 235.849481 123.327989 
L 235.849481 123.327989 
" style="fill:none;stroke:#808080;stroke-dasharray:5.55,2.4;stroke-dashoffset:0;stroke-width:1.5;"/>
    <g clip-path="url(#pa238e16085)">
     <use style="fill:#808080;stroke:#808080;" x="235.849481" xlink:href="#m0a799378e7" y="123.327989"/>
     <use style="fill:#808080;stroke:#808080;" x="235.849481" xlink:href="#m0a799378e7" y="123.327989"/>
    </g>
   </g>
   <g id="line2d_28">
    <path clip-path="url(#pa238e16085)" d="M 245.105625 123.972984 
L 245.105625 123.972984 
" style="fill:none;stroke:#ff0000;stroke-dasharray:5.55,2.4;stroke-dashoffset:0;stroke-width:1.5;"/>
    <g clip-path="url(#pa238e16085)">
     <use style="fill:#ff0000;stroke:#ff0000;" x="245.105625" xlink:href="#m6c443286d4" y="123.972984"/>
     <use style="fill:#ff0000;stroke:#ff0000;" x="245.105625" xlink:href="#m6c443286d4" y="123.972984"/>
    </g>
   </g>
   <g id="line2d_29">
    <path clip-path="url(#pa238e16085)" d="M 254.361769 107.306055 
L 254.361769 107.306055 
" style="fill:none;stroke:#808080;stroke-dasharray:5.55,2.4;stroke-dashoffset:0;stroke-width:1.5;"/>
    <g clip-path="url(#pa238e16085)">
     <use style="fill:#808080;stroke:#808080;" x="254.361769" xlink:href="#m0a799378e7" y="107.306055"/>
     <use style="fill:#808080;stroke:#808080;" x="254.361769" xlink:href="#m0a799378e7" y="107.306055"/>
    </g>
   </g>
   <g id="line2d_30">
    <path clip-path="url(#pa238e16085)" d="M 263.617913 94.765014 
L 263.617913 94.765014 
" style="fill:none;stroke:#808080;stroke-dasharray:5.55,2.4;stroke-dashoffset:0;stroke-width:1.5;"/>
    <g clip-path="url(#pa238e16085)">
     <use style="fill:#808080;stroke:#808080;" x="263.617913" xlink:href="#m0a799378e7" y="94.765014"/>
     <use style="fill:#808080;stroke:#808080;" x="263.617913" xlink:href="#m0a799378e7" y="94.765014"/>
    </g>
   </g>
   <g id="line2d_31">
    <path clip-path="url(#pa238e16085)" d="M 272.874057 84.488537 
L 272.874057 84.488537 
" style="fill:none;stroke:#808080;stroke-dasharray:5.55,2.4;stroke-dashoffset:0;stroke-width:1.5;"/>
    <g clip-path="url(#pa238e16085)">
     <use style="fill:#808080;stroke:#808080;" x="272.874057" xlink:href="#m0a799378e7" y="84.488537"/>
     <use style="fill:#808080;stroke:#808080;" x="272.874057" xlink:href="#m0a799378e7" y="84.488537"/>
    </g>
   </g>
   <g id="line2d_32">
    <path clip-path="url(#pa238e16085)" d="M 282.130201 82.335406 
L 282.130201 82.335406 
" style="fill:none;stroke:#808080;stroke-dasharray:5.55,2.4;stroke-dashoffset:0;stroke-width:1.5;"/>
    <g clip-path="url(#pa238e16085)">
     <use style="fill:#808080;stroke:#808080;" x="282.130201" xlink:href="#m0a799378e7" y="82.335406"/>
     <use style="fill:#808080;stroke:#808080;" x="282.130201" xlink:href="#m0a799378e7" y="82.335406"/>
    </g>
   </g>
   <g id="line2d_33">
    <path clip-path="url(#pa238e16085)" d="M 291.386345 66.617553 
L 291.386345 66.617553 
" style="fill:none;stroke:#0000ff;stroke-dasharray:5.55,2.4;stroke-dashoffset:0;stroke-width:1.5;"/>
    <g clip-path="url(#pa238e16085)">
     <use style="fill:#0000ff;stroke:#0000ff;" x="291.386345" xlink:href="#m4f2528e79b" y="66.617553"/>
     <use style="fill:#0000ff;stroke:#0000ff;" x="291.386345" xlink:href="#m4f2528e79b" y="66.617553"/>
    </g>
   </g>
   <g id="line2d_34">
    <path clip-path="url(#pa238e16085)" d="M 300.642489 66.617553 
L 300.642489 66.617553 
" style="fill:none;stroke:#0000ff;stroke-dasharray:5.55,2.4;stroke-dashoffset:0;stroke-width:1.5;"/>
    <g clip-path="url(#pa238e16085)">
     <use style="fill:#0000ff;stroke:#0000ff;" x="300.642489" xlink:href="#m4f2528e79b" y="66.617553"/>
     <use style="fill:#0000ff;stroke:#0000ff;" x="300.642489" xlink:href="#m4f2528e79b" y="66.617553"/>
    </g>
   </g>
   <g id="line2d_35">
    <path clip-path="url(#pa238e16085)" d="M 309.898633 37.334979 
L 309.898633 37.334979 
" style="fill:none;stroke:#808080;stroke-dasharray:5.55,2.4;stroke-dashoffset:0;stroke-width:1.5;"/>
    <g clip-path="url(#pa238e16085)">
     <use style="fill:#808080;stroke:#808080;" x="309.898633" xlink:href="#m0a799378e7" y="37.334979"/>
     <use style="fill:#808080;stroke:#808080;" x="309.898633" xlink:href="#m0a799378e7" y="37.334979"/>
    </g>
   </g>
   <g id="line2d_36">
    <path clip-path="url(#pa238e16085)" d="M 319.154777 23.551166 
L 319.154777 23.551166 
" style="fill:none;stroke:#808080;stroke-dasharray:5.55,2.4;stroke-dashoffset:0;stroke-width:1.5;"/>
    <g clip-path="url(#pa238e16085)">
     <use style="fill:#808080;stroke:#808080;" x="319.154777" xlink:href="#m0a799378e7" y="23.551166"/>
     <use style="fill:#808080;stroke:#808080;" x="319.154777" xlink:href="#m0a799378e7" y="23.551166"/>
    </g>
   </g>
   <g id="line2d_37">
    <path clip-path="url(#pa238e16085)" d="M 328.410921 23.755146 
L 328.410921 23.755146 
" style="fill:none;stroke:#808080;stroke-dasharray:5.55,2.4;stroke-dashoffset:0;stroke-width:1.5;"/>
    <g clip-path="url(#pa238e16085)">
     <use style="fill:#808080;stroke:#808080;" x="328.410921" xlink:href="#m0a799378e7" y="23.755146"/>
     <use style="fill:#808080;stroke:#808080;" x="328.410921" xlink:href="#m0a799378e7" y="23.755146"/>
    </g>
   </g>
   <g id="line2d_38">
    <path clip-path="url(#pa238e16085)" d="M 337.667064 49.116758 
L 337.667064 49.116758 
" style="fill:none;stroke:#808080;stroke-dasharray:5.55,2.4;stroke-dashoffset:0;stroke-width:1.5;"/>
    <g clip-path="url(#pa238e16085)">
     <use style="fill:#808080;stroke:#808080;" x="337.667064" xlink:href="#m0a799378e7" y="49.116758"/>
     <use style="fill:#808080;stroke:#808080;" x="337.667064" xlink:href="#m0a799378e7" y="49.116758"/>
    </g>
   </g>
   <g id="line2d_39">
    <path clip-path="url(#pa238e16085)" d="M 346.923208 67.305044 
L 346.923208 67.305044 
" style="fill:none;stroke:#808080;stroke-dasharray:5.55,2.4;stroke-dashoffset:0;stroke-width:1.5;"/>
    <g clip-path="url(#pa238e16085)">
     <use style="fill:#808080;stroke:#808080;" x="346.923208" xlink:href="#m0a799378e7" y="67.305044"/>
     <use style="fill:#808080;stroke:#808080;" x="346.923208" xlink:href="#m0a799378e7" y="67.305044"/>
    </g>
   </g>
   <g id="line2d_40">
    <path clip-path="url(#pa238e16085)" d="M 356.179352 82.516723 
L 356.179352 82.516723 
" style="fill:none;stroke:#808080;stroke-dasharray:5.55,2.4;stroke-dashoffset:0;stroke-width:1.5;"/>
    <g clip-path="url(#pa238e16085)">
     <use style="fill:#808080;stroke:#808080;" x="356.179352" xlink:href="#m0a799378e7" y="82.516723"/>
     <use style="fill:#808080;stroke:#808080;" x="356.179352" xlink:href="#m0a799378e7" y="82.516723"/>
    </g>
   </g>
   <g id="line2d_41">
    <path clip-path="url(#pa238e16085)" d="M 365.435496 94.800899 
L 365.435496 94.800899 
" style="fill:none;stroke:#808080;stroke-dasharray:5.55,2.4;stroke-dashoffset:0;stroke-width:1.5;"/>
    <g clip-path="url(#pa238e16085)">
     <use style="fill:#808080;stroke:#808080;" x="365.435496" xlink:href="#m0a799378e7" y="94.800899"/>
     <use style="fill:#808080;stroke:#808080;" x="365.435496" xlink:href="#m0a799378e7" y="94.800899"/>
    </g>
   </g>
   <g id="line2d_42">
    <path clip-path="url(#pa238e16085)" d="M 374.69164 100.884437 
L 374.69164 100.884437 
" style="fill:none;stroke:#808080;stroke-dasharray:5.55,2.4;stroke-dashoffset:0;stroke-width:1.5;"/>
    <g clip-path="url(#pa238e16085)">
     <use style="fill:#808080;stroke:#808080;" x="374.69164" xlink:href="#m0a799378e7" y="100.884437"/>
     <use style="fill:#808080;stroke:#808080;" x="374.69164" xlink:href="#m0a799378e7" y="100.884437"/>
    </g>
   </g>
   <g id="line2d_43">
    <path clip-path="url(#pa238e16085)" d="M 383.947784 102.538948 
L 383.947784 102.538948 
" style="fill:none;stroke:#0000ff;stroke-dasharray:5.55,2.4;stroke-dashoffset:0;stroke-width:1.5;"/>
    <g clip-path="url(#pa238e16085)">
     <use style="fill:#0000ff;stroke:#0000ff;" x="383.947784" xlink:href="#m4f2528e79b" y="102.538948"/>
     <use style="fill:#0000ff;stroke:#0000ff;" x="383.947784" xlink:href="#m4f2528e79b" y="102.538948"/>
    </g>
   </g>
   <g id="line2d_44">
    <path clip-path="url(#pa238e16085)" d="M 393.203928 102.538948 
L 393.203928 102.538948 
" style="fill:none;stroke:#0000ff;stroke-dasharray:5.55,2.4;stroke-dashoffset:0;stroke-width:1.5;"/>
    <g clip-path="url(#pa238e16085)">
     <use style="fill:#0000ff;stroke:#0000ff;" x="393.203928" xlink:href="#m4f2528e79b" y="102.538948"/>
     <use style="fill:#0000ff;stroke:#0000ff;" x="393.203928" xlink:href="#m4f2528e79b" y="102.538948"/>
    </g>
   </g>
   <g id="line2d_45">
    <path clip-path="url(#pa238e16085)" d="M 402.460072 102.538948 
L 402.460072 102.538948 
" style="fill:none;stroke:#0000ff;stroke-dasharray:5.55,2.4;stroke-dashoffset:0;stroke-width:1.5;"/>
    <g clip-path="url(#pa238e16085)">
     <use style="fill:#0000ff;stroke:#0000ff;" x="402.460072" xlink:href="#m4f2528e79b" y="102.538948"/>
     <use style="fill:#0000ff;stroke:#0000ff;" x="402.460072" xlink:href="#m4f2528e79b" y="102.538948"/>
    </g>
   </g>
   <g id="text_2">
    <!-- Resampled SRP time series -->
    <defs>
     <path d="M 18.109375 8.203125 
L 18.109375 -20.796875 
L 9.078125 -20.796875 
L 9.078125 54.6875 
L 18.109375 54.6875 
L 18.109375 46.390625 
Q 20.953125 51.265625 25.265625 53.625 
Q 29.59375 56 35.59375 56 
Q 45.5625 56 51.78125 48.09375 
Q 58.015625 40.1875 58.015625 27.296875 
Q 58.015625 14.40625 51.78125 6.484375 
Q 45.5625 -1.421875 35.59375 -1.421875 
Q 29.59375 -1.421875 25.265625 0.953125 
Q 20.953125 3.328125 18.109375 8.203125 
z
M 48.6875 27.296875 
Q 48.6875 37.203125 44.609375 42.84375 
Q 40.53125 48.484375 33.40625 48.484375 
Q 26.265625 48.484375 22.1875 42.84375 
Q 18.109375 37.203125 18.109375 27.296875 
Q 18.109375 17.390625 22.1875 11.75 
Q 26.265625 6.109375 33.40625 6.109375 
Q 40.53125 6.109375 44.609375 11.75 
Q 48.6875 17.390625 48.6875 27.296875 
z
" id="DejaVuSans-112"/>
     <path d="M 45.40625 46.390625 
L 45.40625 75.984375 
L 54.390625 75.984375 
L 54.390625 0 
L 45.40625 0 
L 45.40625 8.203125 
Q 42.578125 3.328125 38.25 0.953125 
Q 33.9375 -1.421875 27.875 -1.421875 
Q 17.96875 -1.421875 11.734375 6.484375 
Q 5.515625 14.40625 5.515625 27.296875 
Q 5.515625 40.1875 11.734375 48.09375 
Q 17.96875 56 27.875 56 
Q 33.9375 56 38.25 53.625 
Q 42.578125 51.265625 45.40625 46.390625 
z
M 14.796875 27.296875 
Q 14.796875 17.390625 18.875 11.75 
Q 22.953125 6.109375 30.078125 6.109375 
Q 37.203125 6.109375 41.296875 11.75 
Q 45.40625 17.390625 45.40625 27.296875 
Q 45.40625 37.203125 41.296875 42.84375 
Q 37.203125 48.484375 30.078125 48.484375 
Q 22.953125 48.484375 18.875 42.84375 
Q 14.796875 37.203125 14.796875 27.296875 
z
" id="DejaVuSans-100"/>
    </defs>
    <g transform="translate(232.405455 16.318125)scale(0.12 -0.12)">
     <use xlink:href="#DejaVuSans-82"/>
     <use x="69.419922" xlink:href="#DejaVuSans-101"/>
     <use x="130.943359" xlink:href="#DejaVuSans-115"/>
     <use x="183.042969" xlink:href="#DejaVuSans-97"/>
     <use x="244.322266" xlink:href="#DejaVuSans-109"/>
     <use x="341.734375" xlink:href="#DejaVuSans-112"/>
     <use x="405.210938" xlink:href="#DejaVuSans-108"/>
     <use x="432.994141" xlink:href="#DejaVuSans-101"/>
     <use x="494.517578" xlink:href="#DejaVuSans-100"/>
     <use x="557.994141" xlink:href="#DejaVuSans-32"/>
     <use x="589.78125" xlink:href="#DejaVuSans-83"/>
     <use x="653.257812" xlink:href="#DejaVuSans-82"/>
     <use x="722.740234" xlink:href="#DejaVuSans-80"/>
     <use x="783.042969" xlink:href="#DejaVuSans-32"/>
     <use x="814.830078" xlink:href="#DejaVuSans-116"/>
     <use x="854.039062" xlink:href="#DejaVuSans-105"/>
     <use x="881.822266" xlink:href="#DejaVuSans-109"/>
     <use x="979.234375" xlink:href="#DejaVuSans-101"/>
     <use x="1040.757812" xlink:href="#DejaVuSans-32"/>
     <use x="1072.544922" xlink:href="#DejaVuSans-115"/>
     <use x="1124.644531" xlink:href="#DejaVuSans-101"/>
     <use x="1186.167969" xlink:href="#DejaVuSans-114"/>
     <use x="1227.28125" xlink:href="#DejaVuSans-105"/>
     <use x="1255.064453" xlink:href="#DejaVuSans-101"/>
     <use x="1316.587891" xlink:href="#DejaVuSans-115"/>
    </g>
   </g>
  </g>
 </g>
 <defs>
  <clipPath id="p62715d2be2">
   <rect height="110.464" width="193.453409" x="7.2" y="18.530075"/>
  </clipPath>
  <clipPath id="pa238e16085">
   <rect height="110.464" width="193.453409" x="217.8" y="18.530075"/>
  </clipPath>
 </defs>
</svg>
