<?xml version="1.0" encoding="utf-8" standalone="no"?>
<!DOCTYPE svg PUBLIC "-//W3C//DTD SVG 1.1//EN"
  "http://www.w3.org/Graphics/SVG/1.1/DTD/svg11.dtd">
<!-- Created with matplotlib (https://matplotlib.org/) -->
<svg height="207.41375pt" version="1.1" viewBox="0 0 421.874062 207.41375" width="421.874062pt" xmlns="http://www.w3.org/2000/svg" xmlns:xlink="http://www.w3.org/1999/xlink">
 <defs>
  <style type="text/css">
*{stroke-linecap:butt;stroke-linejoin:round;}
  </style>
 </defs>
 <g id="figure_1">
  <g id="patch_1">
   <path d="M 0 207.41375 
L 421.874062 207.41375 
L 421.874062 0 
L 0 0 
z
" style="fill:none;"/>
  </g>
  <g id="axes_1">
   <g id="line2d_1">
    <path clip-path="url(#p65c9f6f8cd)" d="M 34.182043 99.157545 
L 41.552584 98.605009 
L 48.923126 96.833347 
L 56.293667 94.080609 
L 63.664209 84.949442 
L 71.034751 75.790102 
L 78.405292 64.107982 
L 85.775834 48.945448 
L 93.146375 35.845775 
L 100.516917 24.720496 
L 107.887458 21.25233 
L 115.258 37.12787 
L 122.628541 47.31536 
L 129.999083 59.965087 
L 137.369624 68.002096 
L 144.740166 73.308633 
L 152.110708 76.682328 
L 159.481249 79.204499 
L 166.851791 81.515124 
L 174.222332 82.824374 
" style="fill:none;stroke:#000000;stroke-linecap:square;stroke-width:2;"/>
   </g>
   <g id="line2d_2">
    <path clip-path="url(#p65c9f6f8cd)" d="M 34.182043 186.16142 
L 41.552584 184.119512 
L 48.923126 170.626671 
L 56.293667 150.127327 
L 63.664209 136.739417 
L 71.034751 120.74627 
L 78.405292 113.52905 
L 85.775834 110.204145 
L 93.146375 111.581312 
L 100.516917 121.161991 
L 107.887458 136.203147 
L 115.258 145.683535 
L 122.628541 152.561848 
L 129.999083 159.845391 
L 137.369624 164.17375 
L 144.740166 166.554316 
L 152.110708 169.404084 
L 159.481249 171.227733 
L 166.851791 171.838799 
L 174.222332 174.258923 
" style="fill:none;stroke:#000000;stroke-linecap:square;stroke-width:2;"/>
   </g>
   <g id="line2d_3">
    <path clip-path="url(#p65c9f6f8cd)" d="M 34.182043 99.157545 
L 34.182043 186.16142 
" style="fill:none;stroke:#ff0000;stroke-dasharray:5.55,2.4;stroke-dashoffset:0;stroke-width:1.5;"/>
    <defs>
     <path d="M 0 3 
C 0.795609 3 1.55874 2.683901 2.12132 2.12132 
C 2.683901 1.55874 3 0.795609 3 0 
C 3 -0.795609 2.683901 -1.55874 2.12132 -2.12132 
C 1.55874 -2.683901 0.795609 -3 0 -3 
C -0.795609 -3 -1.55874 -2.683901 -2.12132 -2.12132 
C -2.683901 -1.55874 -3 -0.795609 -3 0 
C -3 0.795609 -2.683901 1.55874 -2.12132 2.12132 
C -1.55874 2.683901 -0.795609 3 0 3 
z
" id="m58f1f90b7d" style="stroke:#ff0000;"/>
    </defs>
    <g clip-path="url(#p65c9f6f8cd)">
     <use style="fill:#ff0000;stroke:#ff0000;" x="34.182043" xlink:href="#m58f1f90b7d" y="99.157545"/>
     <use style="fill:#ff0000;stroke:#ff0000;" x="34.182043" xlink:href="#m58f1f90b7d" y="186.16142"/>
    </g>
   </g>
   <g id="line2d_4">
    <path clip-path="url(#p65c9f6f8cd)" d="M 41.552584 98.605009 
L 34.182043 186.16142 
" style="fill:none;stroke:#ff0000;stroke-dasharray:5.55,2.4;stroke-dashoffset:0;stroke-width:1.5;"/>
    <g clip-path="url(#p65c9f6f8cd)">
     <use style="fill:#ff0000;stroke:#ff0000;" x="41.552584" xlink:href="#m58f1f90b7d" y="98.605009"/>
     <use style="fill:#ff0000;stroke:#ff0000;" x="34.182043" xlink:href="#m58f1f90b7d" y="186.16142"/>
    </g>
   </g>
   <g id="line2d_5">
    <path clip-path="url(#p65c9f6f8cd)" d="M 48.923126 96.833347 
L 34.182043 186.16142 
" style="fill:none;stroke:#ff0000;stroke-dasharray:5.55,2.4;stroke-dashoffset:0;stroke-width:1.5;"/>
    <g clip-path="url(#p65c9f6f8cd)">
     <use style="fill:#ff0000;stroke:#ff0000;" x="48.923126" xlink:href="#m58f1f90b7d" y="96.833347"/>
     <use style="fill:#ff0000;stroke:#ff0000;" x="34.182043" xlink:href="#m58f1f90b7d" y="186.16142"/>
    </g>
   </g>
   <g id="line2d_6">
    <path clip-path="url(#p65c9f6f8cd)" d="M 56.293667 94.080609 
L 41.552584 184.119512 
" style="fill:none;stroke:#808080;stroke-dasharray:5.55,2.4;stroke-dashoffset:0;stroke-width:1.5;"/>
    <defs>
     <path d="M 0 3 
C 0.795609 3 1.55874 2.683901 2.12132 2.12132 
C 2.683901 1.55874 3 0.795609 3 0 
C 3 -0.795609 2.683901 -1.55874 2.12132 -2.12132 
C 1.55874 -2.683901 0.795609 -3 0 -3 
C -0.795609 -3 -1.55874 -2.683901 -2.12132 -2.12132 
C -2.683901 -1.55874 -3 -0.795609 -3 0 
C -3 0.795609 -2.683901 1.55874 -2.12132 2.12132 
C -1.55874 2.683901 -0.795609 3 0 3 
z
" id="m694d1be301" style="stroke:#808080;"/>
    </defs>
    <g clip-path="url(#p65c9f6f8cd)">
     <use style="fill:#808080;stroke:#808080;" x="56.293667" xlink:href="#m694d1be301" y="94.080609"/>
     <use style="fill:#808080;stroke:#808080;" x="41.552584" xlink:href="#m694d1be301" y="184.119512"/>
    </g>
   </g>
   <g id="line2d_7">
    <path clip-path="url(#p65c9f6f8cd)" d="M 63.664209 84.949442 
L 48.923126 170.626671 
" style="fill:none;stroke:#ff0000;stroke-dasharray:5.55,2.4;stroke-dashoffset:0;stroke-width:1.5;"/>
    <g clip-path="url(#p65c9f6f8cd)">
     <use style="fill:#ff0000;stroke:#ff0000;" x="63.664209" xlink:href="#m58f1f90b7d" y="84.949442"/>
     <use style="fill:#ff0000;stroke:#ff0000;" x="48.923126" xlink:href="#m58f1f90b7d" y="170.626671"/>
    </g>
   </g>
   <g id="line2d_8">
    <path clip-path="url(#p65c9f6f8cd)" d="M 71.034751 75.790102 
L 48.923126 170.626671 
" style="fill:none;stroke:#ff0000;stroke-dasharray:5.55,2.4;stroke-dashoffset:0;stroke-width:1.5;"/>
    <g clip-path="url(#p65c9f6f8cd)">
     <use style="fill:#ff0000;stroke:#ff0000;" x="71.034751" xlink:href="#m58f1f90b7d" y="75.790102"/>
     <use style="fill:#ff0000;stroke:#ff0000;" x="48.923126" xlink:href="#m58f1f90b7d" y="170.626671"/>
    </g>
   </g>
   <g id="line2d_9">
    <path clip-path="url(#p65c9f6f8cd)" d="M 78.405292 64.107982 
L 56.293667 150.127327 
" style="fill:none;stroke:#808080;stroke-dasharray:5.55,2.4;stroke-dashoffset:0;stroke-width:1.5;"/>
    <g clip-path="url(#p65c9f6f8cd)">
     <use style="fill:#808080;stroke:#808080;" x="78.405292" xlink:href="#m694d1be301" y="64.107982"/>
     <use style="fill:#808080;stroke:#808080;" x="56.293667" xlink:href="#m694d1be301" y="150.127327"/>
    </g>
   </g>
   <g id="line2d_10">
    <path clip-path="url(#p65c9f6f8cd)" d="M 85.775834 48.945448 
L 63.664209 136.739417 
" style="fill:none;stroke:#808080;stroke-dasharray:5.55,2.4;stroke-dashoffset:0;stroke-width:1.5;"/>
    <g clip-path="url(#p65c9f6f8cd)">
     <use style="fill:#808080;stroke:#808080;" x="85.775834" xlink:href="#m694d1be301" y="48.945448"/>
     <use style="fill:#808080;stroke:#808080;" x="63.664209" xlink:href="#m694d1be301" y="136.739417"/>
    </g>
   </g>
   <g id="line2d_11">
    <path clip-path="url(#p65c9f6f8cd)" d="M 93.146375 35.845775 
L 71.034751 120.74627 
" style="fill:none;stroke:#808080;stroke-dasharray:5.55,2.4;stroke-dashoffset:0;stroke-width:1.5;"/>
    <g clip-path="url(#p65c9f6f8cd)">
     <use style="fill:#808080;stroke:#808080;" x="93.146375" xlink:href="#m694d1be301" y="35.845775"/>
     <use style="fill:#808080;stroke:#808080;" x="71.034751" xlink:href="#m694d1be301" y="120.74627"/>
    </g>
   </g>
   <g id="line2d_12">
    <path clip-path="url(#p65c9f6f8cd)" d="M 100.516917 24.720496 
L 78.405292 113.52905 
" style="fill:none;stroke:#808080;stroke-dasharray:5.55,2.4;stroke-dashoffset:0;stroke-width:1.5;"/>
    <g clip-path="url(#p65c9f6f8cd)">
     <use style="fill:#808080;stroke:#808080;" x="100.516917" xlink:href="#m694d1be301" y="24.720496"/>
     <use style="fill:#808080;stroke:#808080;" x="78.405292" xlink:href="#m694d1be301" y="113.52905"/>
    </g>
   </g>
   <g id="line2d_13">
    <path clip-path="url(#p65c9f6f8cd)" d="M 107.887458 21.25233 
L 85.775834 110.204145 
" style="fill:none;stroke:#0000ff;stroke-dasharray:5.55,2.4;stroke-dashoffset:0;stroke-width:1.5;"/>
    <defs>
     <path d="M 0 3 
C 0.795609 3 1.55874 2.683901 2.12132 2.12132 
C 2.683901 1.55874 3 0.795609 3 0 
C 3 -0.795609 2.683901 -1.55874 2.12132 -2.12132 
C 1.55874 -2.683901 0.795609 -3 0 -3 
C -0.795609 -3 -1.55874 -2.683901 -2.12132 -2.12132 
C -2.683901 -1.55874 -3 -0.795609 -3 0 
C -3 0.795609 -2.683901 1.55874 -2.12132 2.12132 
C -1.55874 2.683901 -0.795609 3 0 3 
z
" id="mf2694c79af" style="stroke:#0000ff;"/>
    </defs>
    <g clip-path="url(#p65c9f6f8cd)">
     <use style="fill:#0000ff;stroke:#0000ff;" x="107.887458" xlink:href="#mf2694c79af" y="21.25233"/>
     <use style="fill:#0000ff;stroke:#0000ff;" x="85.775834" xlink:href="#mf2694c79af" y="110.204145"/>
    </g>
   </g>
   <g id="line2d_14">
    <path clip-path="url(#p65c9f6f8cd)" d="M 107.887458 21.25233 
L 93.146375 111.581312 
" style="fill:none;stroke:#0000ff;stroke-dasharray:5.55,2.4;stroke-dashoffset:0;stroke-width:1.5;"/>
    <g clip-path="url(#p65c9f6f8cd)">
     <use style="fill:#0000ff;stroke:#0000ff;" x="107.887458" xlink:href="#mf2694c79af" y="21.25233"/>
     <use style="fill:#0000ff;stroke:#0000ff;" x="93.146375" xlink:href="#mf2694c79af" y="111.581312"/>
    </g>
   </g>
   <g id="line2d_15">
    <path clip-path="url(#p65c9f6f8cd)" d="M 115.258 37.12787 
L 100.516917 121.161991 
" style="fill:none;stroke:#808080;stroke-dasharray:5.55,2.4;stroke-dashoffset:0;stroke-width:1.5;"/>
    <g clip-path="url(#p65c9f6f8cd)">
     <use style="fill:#808080;stroke:#808080;" x="115.258" xlink:href="#m694d1be301" y="37.12787"/>
     <use style="fill:#808080;stroke:#808080;" x="100.516917" xlink:href="#m694d1be301" y="121.161991"/>
    </g>
   </g>
   <g id="line2d_16">
    <path clip-path="url(#p65c9f6f8cd)" d="M 122.628541 47.31536 
L 107.887458 136.203147 
" style="fill:none;stroke:#808080;stroke-dasharray:5.55,2.4;stroke-dashoffset:0;stroke-width:1.5;"/>
    <g clip-path="url(#p65c9f6f8cd)">
     <use style="fill:#808080;stroke:#808080;" x="122.628541" xlink:href="#m694d1be301" y="47.31536"/>
     <use style="fill:#808080;stroke:#808080;" x="107.887458" xlink:href="#m694d1be301" y="136.203147"/>
    </g>
   </g>
   <g id="line2d_17">
    <path clip-path="url(#p65c9f6f8cd)" d="M 129.999083 59.965087 
L 115.258 145.683535 
" style="fill:none;stroke:#808080;stroke-dasharray:5.55,2.4;stroke-dashoffset:0;stroke-width:1.5;"/>
    <g clip-path="url(#p65c9f6f8cd)">
     <use style="fill:#808080;stroke:#808080;" x="129.999083" xlink:href="#m694d1be301" y="59.965087"/>
     <use style="fill:#808080;stroke:#808080;" x="115.258" xlink:href="#m694d1be301" y="145.683535"/>
    </g>
   </g>
   <g id="line2d_18">
    <path clip-path="url(#p65c9f6f8cd)" d="M 137.369624 68.002096 
L 122.628541 152.561848 
" style="fill:none;stroke:#808080;stroke-dasharray:5.55,2.4;stroke-dashoffset:0;stroke-width:1.5;"/>
    <g clip-path="url(#p65c9f6f8cd)">
     <use style="fill:#808080;stroke:#808080;" x="137.369624" xlink:href="#m694d1be301" y="68.002096"/>
     <use style="fill:#808080;stroke:#808080;" x="122.628541" xlink:href="#m694d1be301" y="152.561848"/>
    </g>
   </g>
   <g id="line2d_19">
    <path clip-path="url(#p65c9f6f8cd)" d="M 144.740166 73.308633 
L 129.999083 159.845391 
" style="fill:none;stroke:#808080;stroke-dasharray:5.55,2.4;stroke-dashoffset:0;stroke-width:1.5;"/>
    <g clip-path="url(#p65c9f6f8cd)">
     <use style="fill:#808080;stroke:#808080;" x="144.740166" xlink:href="#m694d1be301" y="73.308633"/>
     <use style="fill:#808080;stroke:#808080;" x="129.999083" xlink:href="#m694d1be301" y="159.845391"/>
    </g>
   </g>
   <g id="line2d_20">
    <path clip-path="url(#p65c9f6f8cd)" d="M 152.110708 76.682328 
L 137.369624 164.17375 
" style="fill:none;stroke:#808080;stroke-dasharray:5.55,2.4;stroke-dashoffset:0;stroke-width:1.5;"/>
    <g clip-path="url(#p65c9f6f8cd)">
     <use style="fill:#808080;stroke:#808080;" x="152.110708" xlink:href="#m694d1be301" y="76.682328"/>
     <use style="fill:#808080;stroke:#808080;" x="137.369624" xlink:href="#m694d1be301" y="164.17375"/>
    </g>
   </g>
   <g id="line2d_21">
    <path clip-path="url(#p65c9f6f8cd)" d="M 159.481249 79.204499 
L 144.740166 166.554316 
" style="fill:none;stroke:#808080;stroke-dasharray:5.55,2.4;stroke-dashoffset:0;stroke-width:1.5;"/>
    <g clip-path="url(#p65c9f6f8cd)">
     <use style="fill:#808080;stroke:#808080;" x="159.481249" xlink:href="#m694d1be301" y="79.204499"/>
     <use style="fill:#808080;stroke:#808080;" x="144.740166" xlink:href="#m694d1be301" y="166.554316"/>
    </g>
   </g>
   <g id="line2d_22">
    <path clip-path="url(#p65c9f6f8cd)" d="M 166.851791 81.515124 
L 152.110708 169.404084 
" style="fill:none;stroke:#808080;stroke-dasharray:5.55,2.4;stroke-dashoffset:0;stroke-width:1.5;"/>
    <g clip-path="url(#p65c9f6f8cd)">
     <use style="fill:#808080;stroke:#808080;" x="166.851791" xlink:href="#m694d1be301" y="81.515124"/>
     <use style="fill:#808080;stroke:#808080;" x="152.110708" xlink:href="#m694d1be301" y="169.404084"/>
    </g>
   </g>
   <g id="line2d_23">
    <path clip-path="url(#p65c9f6f8cd)" d="M 174.222332 82.824374 
L 159.481249 171.227733 
" style="fill:none;stroke:#0000ff;stroke-dasharray:5.55,2.4;stroke-dashoffset:0;stroke-width:1.5;"/>
    <g clip-path="url(#p65c9f6f8cd)">
     <use style="fill:#0000ff;stroke:#0000ff;" x="174.222332" xlink:href="#mf2694c79af" y="82.824374"/>
     <use style="fill:#0000ff;stroke:#0000ff;" x="159.481249" xlink:href="#mf2694c79af" y="171.227733"/>
    </g>
   </g>
   <g id="line2d_24">
    <path clip-path="url(#p65c9f6f8cd)" d="M 174.222332 82.824374 
L 166.851791 171.838799 
" style="fill:none;stroke:#0000ff;stroke-dasharray:5.55,2.4;stroke-dashoffset:0;stroke-width:1.5;"/>
    <g clip-path="url(#p65c9f6f8cd)">
     <use style="fill:#0000ff;stroke:#0000ff;" x="174.222332" xlink:href="#mf2694c79af" y="82.824374"/>
     <use style="fill:#0000ff;stroke:#0000ff;" x="166.851791" xlink:href="#mf2694c79af" y="171.838799"/>
    </g>
   </g>
   <g id="line2d_25">
    <path clip-path="url(#p65c9f6f8cd)" d="M 174.222332 82.824374 
L 174.222332 174.258923 
" style="fill:none;stroke:#0000ff;stroke-dasharray:5.55,2.4;stroke-dashoffset:0;stroke-width:1.5;"/>
    <g clip-path="url(#p65c9f6f8cd)">
     <use style="fill:#0000ff;stroke:#0000ff;" x="174.222332" xlink:href="#mf2694c79af" y="82.824374"/>
     <use style="fill:#0000ff;stroke:#0000ff;" x="174.222332" xlink:href="#mf2694c79af" y="174.258923"/>
    </g>
   </g>
   <g id="text_1">
    <!-- Original discharge time series -->
    <defs>
     <path d="M 39.40625 66.21875 
Q 28.65625 66.21875 22.328125 58.203125 
Q 16.015625 50.203125 16.015625 36.375 
Q 16.015625 22.609375 22.328125 14.59375 
Q 28.65625 6.59375 39.40625 6.59375 
Q 50.140625 6.59375 56.421875 14.59375 
Q 62.703125 22.609375 62.703125 36.375 
Q 62.703125 50.203125 56.421875 58.203125 
Q 50.140625 66.21875 39.40625 66.21875 
z
M 39.40625 74.21875 
Q 54.734375 74.21875 63.90625 63.9375 
Q 73.09375 53.65625 73.09375 36.375 
Q 73.09375 19.140625 63.90625 8.859375 
Q 54.734375 -1.421875 39.40625 -1.421875 
Q 24.03125 -1.421875 14.8125 8.828125 
Q 5.609375 19.09375 5.609375 36.375 
Q 5.609375 53.65625 14.8125 63.9375 
Q 24.03125 74.21875 39.40625 74.21875 
z
" id="DejaVuSans-79"/>
     <path d="M 41.109375 46.296875 
Q 39.59375 47.171875 37.8125 47.578125 
Q 36.03125 48 33.890625 48 
Q 26.265625 48 22.1875 43.046875 
Q 18.109375 38.09375 18.109375 28.8125 
L 18.109375 0 
L 9.078125 0 
L 9.078125 54.6875 
L 18.109375 54.6875 
L 18.109375 46.1875 
Q 20.953125 51.171875 25.484375 53.578125 
Q 30.03125 56 36.53125 56 
Q 37.453125 56 38.578125 55.875 
Q 39.703125 55.765625 41.0625 55.515625 
z
" id="DejaVuSans-114"/>
     <path d="M 9.421875 54.6875 
L 18.40625 54.6875 
L 18.40625 0 
L 9.421875 0 
z
M 9.421875 75.984375 
L 18.40625 75.984375 
L 18.40625 64.59375 
L 9.421875 64.59375 
z
" id="DejaVuSans-105"/>
     <path d="M 45.40625 27.984375 
Q 45.40625 37.75 41.375 43.109375 
Q 37.359375 48.484375 30.078125 48.484375 
Q 22.859375 48.484375 18.828125 43.109375 
Q 14.796875 37.75 14.796875 27.984375 
Q 14.796875 18.265625 18.828125 12.890625 
Q 22.859375 7.515625 30.078125 7.515625 
Q 37.359375 7.515625 41.375 12.890625 
Q 45.40625 18.265625 45.40625 27.984375 
z
M 54.390625 6.78125 
Q 54.390625 -7.171875 48.1875 -13.984375 
Q 42 -20.796875 29.203125 -20.796875 
Q 24.46875 -20.796875 20.265625 -20.09375 
Q 16.0625 -19.390625 12.109375 -17.921875 
L 12.109375 -9.1875 
Q 16.0625 -11.328125 19.921875 -12.34375 
Q 23.78125 -13.375 27.78125 -13.375 
Q 36.625 -13.375 41.015625 -8.765625 
Q 45.40625 -4.15625 45.40625 5.171875 
L 45.40625 9.625 
Q 42.625 4.78125 38.28125 2.390625 
Q 33.9375 0 27.875 0 
Q 17.828125 0 11.671875 7.65625 
Q 5.515625 15.328125 5.515625 27.984375 
Q 5.515625 40.671875 11.671875 48.328125 
Q 17.828125 56 27.875 56 
Q 33.9375 56 38.28125 53.609375 
Q 42.625 51.21875 45.40625 46.390625 
L 45.40625 54.6875 
L 54.390625 54.6875 
z
" id="DejaVuSans-103"/>
     <path d="M 54.890625 33.015625 
L 54.890625 0 
L 45.90625 0 
L 45.90625 32.71875 
Q 45.90625 40.484375 42.875 44.328125 
Q 39.84375 48.1875 33.796875 48.1875 
Q 26.515625 48.1875 22.3125 43.546875 
Q 18.109375 38.921875 18.109375 30.90625 
L 18.109375 0 
L 9.078125 0 
L 9.078125 54.6875 
L 18.109375 54.6875 
L 18.109375 46.1875 
Q 21.34375 51.125 25.703125 53.5625 
Q 30.078125 56 35.796875 56 
Q 45.21875 56 50.046875 50.171875 
Q 54.890625 44.34375 54.890625 33.015625 
z
" id="DejaVuSans-110"/>
     <path d="M 34.28125 27.484375 
Q 23.390625 27.484375 19.1875 25 
Q 14.984375 22.515625 14.984375 16.5 
Q 14.984375 11.71875 18.140625 8.90625 
Q 21.296875 6.109375 26.703125 6.109375 
Q 34.1875 6.109375 38.703125 11.40625 
Q 43.21875 16.703125 43.21875 25.484375 
L 43.21875 27.484375 
z
M 52.203125 31.203125 
L 52.203125 0 
L 43.21875 0 
L 43.21875 8.296875 
Q 40.140625 3.328125 35.546875 0.953125 
Q 30.953125 -1.421875 24.3125 -1.421875 
Q 15.921875 -1.421875 10.953125 3.296875 
Q 6 8.015625 6 15.921875 
Q 6 25.140625 12.171875 29.828125 
Q 18.359375 34.515625 30.609375 34.515625 
L 43.21875 34.515625 
L 43.21875 35.40625 
Q 43.21875 41.609375 39.140625 45 
Q 35.0625 48.390625 27.6875 48.390625 
Q 23 48.390625 18.546875 47.265625 
Q 14.109375 46.140625 10.015625 43.890625 
L 10.015625 52.203125 
Q 14.9375 54.109375 19.578125 55.046875 
Q 24.21875 56 28.609375 56 
Q 40.484375 56 46.34375 49.84375 
Q 52.203125 43.703125 52.203125 31.203125 
z
" id="DejaVuSans-97"/>
     <path d="M 9.421875 75.984375 
L 18.40625 75.984375 
L 18.40625 0 
L 9.421875 0 
z
" id="DejaVuSans-108"/>
     <path id="DejaVuSans-32"/>
     <path d="M 45.40625 46.390625 
L 45.40625 75.984375 
L 54.390625 75.984375 
L 54.390625 0 
L 45.40625 0 
L 45.40625 8.203125 
Q 42.578125 3.328125 38.25 0.953125 
Q 33.9375 -1.421875 27.875 -1.421875 
Q 17.96875 -1.421875 11.734375 6.484375 
Q 5.515625 14.40625 5.515625 27.296875 
Q 5.515625 40.1875 11.734375 48.09375 
Q 17.96875 56 27.875 56 
Q 33.9375 56 38.25 53.625 
Q 42.578125 51.265625 45.40625 46.390625 
z
M 14.796875 27.296875 
Q 14.796875 17.390625 18.875 11.75 
Q 22.953125 6.109375 30.078125 6.109375 
Q 37.203125 6.109375 41.296875 11.75 
Q 45.40625 17.390625 45.40625 27.296875 
Q 45.40625 37.203125 41.296875 42.84375 
Q 37.203125 48.484375 30.078125 48.484375 
Q 22.953125 48.484375 18.875 42.84375 
Q 14.796875 37.203125 14.796875 27.296875 
z
" id="DejaVuSans-100"/>
     <path d="M 44.28125 53.078125 
L 44.28125 44.578125 
Q 40.484375 46.53125 36.375 47.5 
Q 32.28125 48.484375 27.875 48.484375 
Q 21.1875 48.484375 17.84375 46.4375 
Q 14.5 44.390625 14.5 40.28125 
Q 14.5 37.15625 16.890625 35.375 
Q 19.28125 33.59375 26.515625 31.984375 
L 29.59375 31.296875 
Q 39.15625 29.25 43.1875 25.515625 
Q 47.21875 21.78125 47.21875 15.09375 
Q 47.21875 7.46875 41.1875 3.015625 
Q 35.15625 -1.421875 24.609375 -1.421875 
Q 20.21875 -1.421875 15.453125 -0.5625 
Q 10.6875 0.296875 5.421875 2 
L 5.421875 11.28125 
Q 10.40625 8.6875 15.234375 7.390625 
Q 20.0625 6.109375 24.8125 6.109375 
Q 31.15625 6.109375 34.5625 8.28125 
Q 37.984375 10.453125 37.984375 14.40625 
Q 37.984375 18.0625 35.515625 20.015625 
Q 33.0625 21.96875 24.703125 23.78125 
L 21.578125 24.515625 
Q 13.234375 26.265625 9.515625 29.90625 
Q 5.8125 33.546875 5.8125 39.890625 
Q 5.8125 47.609375 11.28125 51.796875 
Q 16.75 56 26.8125 56 
Q 31.78125 56 36.171875 55.265625 
Q 40.578125 54.546875 44.28125 53.078125 
z
" id="DejaVuSans-115"/>
     <path d="M 48.78125 52.59375 
L 48.78125 44.1875 
Q 44.96875 46.296875 41.140625 47.34375 
Q 37.3125 48.390625 33.40625 48.390625 
Q 24.65625 48.390625 19.8125 42.84375 
Q 14.984375 37.3125 14.984375 27.296875 
Q 14.984375 17.28125 19.8125 11.734375 
Q 24.65625 6.203125 33.40625 6.203125 
Q 37.3125 6.203125 41.140625 7.25 
Q 44.96875 8.296875 48.78125 10.40625 
L 48.78125 2.09375 
Q 45.015625 0.34375 40.984375 -0.53125 
Q 36.96875 -1.421875 32.421875 -1.421875 
Q 20.0625 -1.421875 12.78125 6.34375 
Q 5.515625 14.109375 5.515625 27.296875 
Q 5.515625 40.671875 12.859375 48.328125 
Q 20.21875 56 33.015625 56 
Q 37.15625 56 41.109375 55.140625 
Q 45.0625 54.296875 48.78125 52.59375 
z
" id="DejaVuSans-99"/>
     <path d="M 54.890625 33.015625 
L 54.890625 0 
L 45.90625 0 
L 45.90625 32.71875 
Q 45.90625 40.484375 42.875 44.328125 
Q 39.84375 48.1875 33.796875 48.1875 
Q 26.515625 48.1875 22.3125 43.546875 
Q 18.109375 38.921875 18.109375 30.90625 
L 18.109375 0 
L 9.078125 0 
L 9.078125 75.984375 
L 18.109375 75.984375 
L 18.109375 46.1875 
Q 21.34375 51.125 25.703125 53.5625 
Q 30.078125 56 35.796875 56 
Q 45.21875 56 50.046875 50.171875 
Q 54.890625 44.34375 54.890625 33.015625 
z
" id="DejaVuSans-104"/>
     <path d="M 56.203125 29.59375 
L 56.203125 25.203125 
L 14.890625 25.203125 
Q 15.484375 15.921875 20.484375 11.0625 
Q 25.484375 6.203125 34.421875 6.203125 
Q 39.59375 6.203125 44.453125 7.46875 
Q 49.3125 8.734375 54.109375 11.28125 
L 54.109375 2.78125 
Q 49.265625 0.734375 44.1875 -0.34375 
Q 39.109375 -1.421875 33.890625 -1.421875 
Q 20.796875 -1.421875 13.15625 6.1875 
Q 5.515625 13.8125 5.515625 26.8125 
Q 5.515625 40.234375 12.765625 48.109375 
Q 20.015625 56 32.328125 56 
Q 43.359375 56 49.78125 48.890625 
Q 56.203125 41.796875 56.203125 29.59375 
z
M 47.21875 32.234375 
Q 47.125 39.59375 43.09375 43.984375 
Q 39.0625 48.390625 32.421875 48.390625 
Q 24.90625 48.390625 20.390625 44.140625 
Q 15.875 39.890625 15.1875 32.171875 
z
" id="DejaVuSans-101"/>
     <path d="M 18.3125 70.21875 
L 18.3125 54.6875 
L 36.8125 54.6875 
L 36.8125 47.703125 
L 18.3125 47.703125 
L 18.3125 18.015625 
Q 18.3125 11.328125 20.140625 9.421875 
Q 21.96875 7.515625 27.59375 7.515625 
L 36.8125 7.515625 
L 36.8125 0 
L 27.59375 0 
Q 17.1875 0 13.234375 3.875 
Q 9.28125 7.765625 9.28125 18.015625 
L 9.28125 47.703125 
L 2.6875 47.703125 
L 2.6875 54.6875 
L 9.28125 54.6875 
L 9.28125 70.21875 
z
" id="DejaVuSans-116"/>
     <path d="M 52 44.1875 
Q 55.375 50.25 60.0625 53.125 
Q 64.75 56 71.09375 56 
Q 79.640625 56 84.28125 50.015625 
Q 88.921875 44.046875 88.921875 33.015625 
L 88.921875 0 
L 79.890625 0 
L 79.890625 32.71875 
Q 79.890625 40.578125 77.09375 44.375 
Q 74.3125 48.1875 68.609375 48.1875 
Q 61.625 48.1875 57.5625 43.546875 
Q 53.515625 38.921875 53.515625 30.90625 
L 53.515625 0 
L 44.484375 0 
L 44.484375 32.71875 
Q 44.484375 40.625 41.703125 44.40625 
Q 38.921875 48.1875 33.109375 48.1875 
Q 26.21875 48.1875 22.15625 43.53125 
Q 18.109375 38.875 18.109375 30.90625 
L 18.109375 0 
L 9.078125 0 
L 9.078125 54.6875 
L 18.109375 54.6875 
L 18.109375 46.1875 
Q 21.1875 51.21875 25.484375 53.609375 
Q 29.78125 56 35.6875 56 
Q 41.65625 56 45.828125 52.96875 
Q 50 49.953125 52 44.1875 
z
" id="DejaVuSans-109"/>
    </defs>
    <g transform="translate(14.3325 16.318125)scale(0.12 -0.12)">
     <use xlink:href="#DejaVuSans-79"/>
     <use x="78.710938" xlink:href="#DejaVuSans-114"/>
     <use x="119.824219" xlink:href="#DejaVuSans-105"/>
     <use x="147.607422" xlink:href="#DejaVuSans-103"/>
     <use x="211.083984" xlink:href="#DejaVuSans-105"/>
     <use x="238.867188" xlink:href="#DejaVuSans-110"/>
     <use x="302.246094" xlink:href="#DejaVuSans-97"/>
     <use x="363.525391" xlink:href="#DejaVuSans-108"/>
     <use x="391.308594" xlink:href="#DejaVuSans-32"/>
     <use x="423.095703" xlink:href="#DejaVuSans-100"/>
     <use x="486.572266" xlink:href="#DejaVuSans-105"/>
     <use x="514.355469" xlink:href="#DejaVuSans-115"/>
     <use x="566.455078" xlink:href="#DejaVuSans-99"/>
     <use x="621.435547" xlink:href="#DejaVuSans-104"/>
     <use x="684.814453" xlink:href="#DejaVuSans-97"/>
     <use x="746.09375" xlink:href="#DejaVuSans-114"/>
     <use x="787.191406" xlink:href="#DejaVuSans-103"/>
     <use x="850.667969" xlink:href="#DejaVuSans-101"/>
     <use x="912.191406" xlink:href="#DejaVuSans-32"/>
     <use x="943.978516" xlink:href="#DejaVuSans-116"/>
     <use x="983.1875" xlink:href="#DejaVuSans-105"/>
     <use x="1010.970703" xlink:href="#DejaVuSans-109"/>
     <use x="1108.382812" xlink:href="#DejaVuSans-101"/>
     <use x="1169.90625" xlink:href="#DejaVuSans-32"/>
     <use x="1201.693359" xlink:href="#DejaVuSans-115"/>
     <use x="1253.792969" xlink:href="#DejaVuSans-101"/>
     <use x="1315.316406" xlink:href="#DejaVuSans-114"/>
     <use x="1356.429688" xlink:href="#DejaVuSans-105"/>
     <use x="1384.212891" xlink:href="#DejaVuSans-101"/>
     <use x="1445.736328" xlink:href="#DejaVuSans-115"/>
    </g>
   </g>
   <g id="text_2">
    <!-- Reference discharge time series -->
    <defs>
     <path d="M 44.390625 34.1875 
Q 47.5625 33.109375 50.5625 29.59375 
Q 53.5625 26.078125 56.59375 19.921875 
L 66.609375 0 
L 56 0 
L 46.6875 18.703125 
Q 43.0625 26.03125 39.671875 28.421875 
Q 36.28125 30.8125 30.421875 30.8125 
L 19.671875 30.8125 
L 19.671875 0 
L 9.8125 0 
L 9.8125 72.90625 
L 32.078125 72.90625 
Q 44.578125 72.90625 50.734375 67.671875 
Q 56.890625 62.453125 56.890625 51.90625 
Q 56.890625 45.015625 53.6875 40.46875 
Q 50.484375 35.9375 44.390625 34.1875 
z
M 19.671875 64.796875 
L 19.671875 38.921875 
L 32.078125 38.921875 
Q 39.203125 38.921875 42.84375 42.21875 
Q 46.484375 45.515625 46.484375 51.90625 
Q 46.484375 58.296875 42.84375 61.546875 
Q 39.203125 64.796875 32.078125 64.796875 
z
" id="DejaVuSans-82"/>
     <path d="M 37.109375 75.984375 
L 37.109375 68.5 
L 28.515625 68.5 
Q 23.6875 68.5 21.796875 66.546875 
Q 19.921875 64.59375 19.921875 59.515625 
L 19.921875 54.6875 
L 34.71875 54.6875 
L 34.71875 47.703125 
L 19.921875 47.703125 
L 19.921875 0 
L 10.890625 0 
L 10.890625 47.703125 
L 2.296875 47.703125 
L 2.296875 54.6875 
L 10.890625 54.6875 
L 10.890625 58.5 
Q 10.890625 67.625 15.140625 71.796875 
Q 19.390625 75.984375 28.609375 75.984375 
z
" id="DejaVuSans-102"/>
    </defs>
    <g transform="translate(7.2 197.718125)scale(0.12 -0.12)">
     <use xlink:href="#DejaVuSans-82"/>
     <use x="69.419922" xlink:href="#DejaVuSans-101"/>
     <use x="130.943359" xlink:href="#DejaVuSans-102"/>
     <use x="166.148438" xlink:href="#DejaVuSans-101"/>
     <use x="227.671875" xlink:href="#DejaVuSans-114"/>
     <use x="268.753906" xlink:href="#DejaVuSans-101"/>
     <use x="330.277344" xlink:href="#DejaVuSans-110"/>
     <use x="393.65625" xlink:href="#DejaVuSans-99"/>
     <use x="448.636719" xlink:href="#DejaVuSans-101"/>
     <use x="510.160156" xlink:href="#DejaVuSans-32"/>
     <use x="541.947266" xlink:href="#DejaVuSans-100"/>
     <use x="605.423828" xlink:href="#DejaVuSans-105"/>
     <use x="633.207031" xlink:href="#DejaVuSans-115"/>
     <use x="685.306641" xlink:href="#DejaVuSans-99"/>
     <use x="740.287109" xlink:href="#DejaVuSans-104"/>
     <use x="803.666016" xlink:href="#DejaVuSans-97"/>
     <use x="864.945312" xlink:href="#DejaVuSans-114"/>
     <use x="906.042969" xlink:href="#DejaVuSans-103"/>
     <use x="969.519531" xlink:href="#DejaVuSans-101"/>
     <use x="1031.042969" xlink:href="#DejaVuSans-32"/>
     <use x="1062.830078" xlink:href="#DejaVuSans-116"/>
     <use x="1102.039062" xlink:href="#DejaVuSans-105"/>
     <use x="1129.822266" xlink:href="#DejaVuSans-109"/>
     <use x="1227.234375" xlink:href="#DejaVuSans-101"/>
     <use x="1288.757812" xlink:href="#DejaVuSans-32"/>
     <use x="1320.544922" xlink:href="#DejaVuSans-115"/>
     <use x="1372.644531" xlink:href="#DejaVuSans-101"/>
     <use x="1434.167969" xlink:href="#DejaVuSans-114"/>
     <use x="1475.28125" xlink:href="#DejaVuSans-105"/>
     <use x="1503.064453" xlink:href="#DejaVuSans-101"/>
     <use x="1564.587891" xlink:href="#DejaVuSans-115"/>
    </g>
   </g>
  </g>
  <g id="axes_2">
   <g id="line2d_26">
    <path clip-path="url(#pe5d90d93a6)" d="M 244.782043 98.198634 
L 252.152584 94.080609 
L 259.523126 80.369772 
L 266.893667 64.107982 
L 274.264209 48.945448 
L 281.634751 35.845775 
L 289.005292 24.720496 
L 296.375834 21.25233 
L 303.746375 21.25233 
L 311.116917 37.12787 
L 318.487458 47.31536 
L 325.858 59.965087 
L 333.228541 68.002096 
L 340.599083 73.308633 
L 347.969624 76.682328 
L 355.340166 79.204499 
L 362.710708 81.515124 
L 370.081249 82.824374 
L 377.451791 82.824374 
L 384.822332 82.824374 
" style="fill:none;stroke:#000000;stroke-linecap:square;stroke-width:2;"/>
   </g>
   <g id="line2d_27">
    <path clip-path="url(#pe5d90d93a6)" d="M 244.782043 186.16142 
L 252.152584 184.119512 
L 259.523126 170.626671 
L 266.893667 150.127327 
L 274.264209 136.739417 
L 281.634751 120.74627 
L 289.005292 113.52905 
L 296.375834 110.204145 
L 303.746375 111.581312 
L 311.116917 121.161991 
L 318.487458 136.203147 
L 325.858 145.683535 
L 333.228541 152.561848 
L 340.599083 159.845391 
L 347.969624 164.17375 
L 355.340166 166.554316 
L 362.710708 169.404084 
L 370.081249 171.227733 
L 377.451791 171.838799 
L 384.822332 174.258923 
" style="fill:none;stroke:#000000;stroke-linecap:square;stroke-width:2;"/>
   </g>
   <g id="line2d_28">
    <path clip-path="url(#pe5d90d93a6)" d="M 244.782043 98.198634 
L 244.782043 186.16142 
" style="fill:none;stroke:#ff0000;stroke-dasharray:5.55,2.4;stroke-dashoffset:0;stroke-width:1.5;"/>
    <g clip-path="url(#pe5d90d93a6)">
     <use style="fill:#ff0000;stroke:#ff0000;" x="244.782043" xlink:href="#m58f1f90b7d" y="98.198634"/>
     <use style="fill:#ff0000;stroke:#ff0000;" x="244.782043" xlink:href="#m58f1f90b7d" y="186.16142"/>
    </g>
   </g>
   <g id="line2d_29">
    <path clip-path="url(#pe5d90d93a6)" d="M 252.152584 94.080609 
L 252.152584 184.119512 
" style="fill:none;stroke:#808080;stroke-dasharray:5.55,2.4;stroke-dashoffset:0;stroke-width:1.5;"/>
    <g clip-path="url(#pe5d90d93a6)">
     <use style="fill:#808080;stroke:#808080;" x="252.152584" xlink:href="#m694d1be301" y="94.080609"/>
     <use style="fill:#808080;stroke:#808080;" x="252.152584" xlink:href="#m694d1be301" y="184.119512"/>
    </g>
   </g>
   <g id="line2d_30">
    <path clip-path="url(#pe5d90d93a6)" d="M 259.523126 80.369772 
L 259.523126 170.626671 
" style="fill:none;stroke:#ff0000;stroke-dasharray:5.55,2.4;stroke-dashoffset:0;stroke-width:1.5;"/>
    <g clip-path="url(#pe5d90d93a6)">
     <use style="fill:#ff0000;stroke:#ff0000;" x="259.523126" xlink:href="#m58f1f90b7d" y="80.369772"/>
     <use style="fill:#ff0000;stroke:#ff0000;" x="259.523126" xlink:href="#m58f1f90b7d" y="170.626671"/>
    </g>
   </g>
   <g id="line2d_31">
    <path clip-path="url(#pe5d90d93a6)" d="M 266.893667 64.107982 
L 266.893667 150.127327 
" style="fill:none;stroke:#808080;stroke-dasharray:5.55,2.4;stroke-dashoffset:0;stroke-width:1.5;"/>
    <g clip-path="url(#pe5d90d93a6)">
     <use style="fill:#808080;stroke:#808080;" x="266.893667" xlink:href="#m694d1be301" y="64.107982"/>
     <use style="fill:#808080;stroke:#808080;" x="266.893667" xlink:href="#m694d1be301" y="150.127327"/>
    </g>
   </g>
   <g id="line2d_32">
    <path clip-path="url(#pe5d90d93a6)" d="M 274.264209 48.945448 
L 274.264209 136.739417 
" style="fill:none;stroke:#808080;stroke-dasharray:5.55,2.4;stroke-dashoffset:0;stroke-width:1.5;"/>
    <g clip-path="url(#pe5d90d93a6)">
     <use style="fill:#808080;stroke:#808080;" x="274.264209" xlink:href="#m694d1be301" y="48.945448"/>
     <use style="fill:#808080;stroke:#808080;" x="274.264209" xlink:href="#m694d1be301" y="136.739417"/>
    </g>
   </g>
   <g id="line2d_33">
    <path clip-path="url(#pe5d90d93a6)" d="M 281.634751 35.845775 
L 281.634751 120.74627 
" style="fill:none;stroke:#808080;stroke-dasharray:5.55,2.4;stroke-dashoffset:0;stroke-width:1.5;"/>
    <g clip-path="url(#pe5d90d93a6)">
     <use style="fill:#808080;stroke:#808080;" x="281.634751" xlink:href="#m694d1be301" y="35.845775"/>
     <use style="fill:#808080;stroke:#808080;" x="281.634751" xlink:href="#m694d1be301" y="120.74627"/>
    </g>
   </g>
   <g id="line2d_34">
    <path clip-path="url(#pe5d90d93a6)" d="M 289.005292 24.720496 
L 289.005292 113.52905 
" style="fill:none;stroke:#808080;stroke-dasharray:5.55,2.4;stroke-dashoffset:0;stroke-width:1.5;"/>
    <g clip-path="url(#pe5d90d93a6)">
     <use style="fill:#808080;stroke:#808080;" x="289.005292" xlink:href="#m694d1be301" y="24.720496"/>
     <use style="fill:#808080;stroke:#808080;" x="289.005292" xlink:href="#m694d1be301" y="113.52905"/>
    </g>
   </g>
   <g id="line2d_35">
    <path clip-path="url(#pe5d90d93a6)" d="M 296.375834 21.25233 
L 296.375834 110.204145 
" style="fill:none;stroke:#0000ff;stroke-dasharray:5.55,2.4;stroke-dashoffset:0;stroke-width:1.5;"/>
    <g clip-path="url(#pe5d90d93a6)">
     <use style="fill:#0000ff;stroke:#0000ff;" x="296.375834" xlink:href="#mf2694c79af" y="21.25233"/>
     <use style="fill:#0000ff;stroke:#0000ff;" x="296.375834" xlink:href="#mf2694c79af" y="110.204145"/>
    </g>
   </g>
   <g id="line2d_36">
    <path clip-path="url(#pe5d90d93a6)" d="M 303.746375 21.25233 
L 303.746375 111.581312 
" style="fill:none;stroke:#0000ff;stroke-dasharray:5.55,2.4;stroke-dashoffset:0;stroke-width:1.5;"/>
    <g clip-path="url(#pe5d90d93a6)">
     <use style="fill:#0000ff;stroke:#0000ff;" x="303.746375" xlink:href="#mf2694c79af" y="21.25233"/>
     <use style="fill:#0000ff;stroke:#0000ff;" x="303.746375" xlink:href="#mf2694c79af" y="111.581312"/>
    </g>
   </g>
   <g id="line2d_37">
    <path clip-path="url(#pe5d90d93a6)" d="M 311.116917 37.12787 
L 311.116917 121.161991 
" style="fill:none;stroke:#808080;stroke-dasharray:5.55,2.4;stroke-dashoffset:0;stroke-width:1.5;"/>
    <g clip-path="url(#pe5d90d93a6)">
     <use style="fill:#808080;stroke:#808080;" x="311.116917" xlink:href="#m694d1be301" y="37.12787"/>
     <use style="fill:#808080;stroke:#808080;" x="311.116917" xlink:href="#m694d1be301" y="121.161991"/>
    </g>
   </g>
   <g id="line2d_38">
    <path clip-path="url(#pe5d90d93a6)" d="M 318.487458 47.31536 
L 318.487458 136.203147 
" style="fill:none;stroke:#808080;stroke-dasharray:5.55,2.4;stroke-dashoffset:0;stroke-width:1.5;"/>
    <g clip-path="url(#pe5d90d93a6)">
     <use style="fill:#808080;stroke:#808080;" x="318.487458" xlink:href="#m694d1be301" y="47.31536"/>
     <use style="fill:#808080;stroke:#808080;" x="318.487458" xlink:href="#m694d1be301" y="136.203147"/>
    </g>
   </g>
   <g id="line2d_39">
    <path clip-path="url(#pe5d90d93a6)" d="M 325.858 59.965087 
L 325.858 145.683535 
" style="fill:none;stroke:#808080;stroke-dasharray:5.55,2.4;stroke-dashoffset:0;stroke-width:1.5;"/>
    <g clip-path="url(#pe5d90d93a6)">
     <use style="fill:#808080;stroke:#808080;" x="325.858" xlink:href="#m694d1be301" y="59.965087"/>
     <use style="fill:#808080;stroke:#808080;" x="325.858" xlink:href="#m694d1be301" y="145.683535"/>
    </g>
   </g>
   <g id="line2d_40">
    <path clip-path="url(#pe5d90d93a6)" d="M 333.228541 68.002096 
L 333.228541 152.561848 
" style="fill:none;stroke:#808080;stroke-dasharray:5.55,2.4;stroke-dashoffset:0;stroke-width:1.5;"/>
    <g clip-path="url(#pe5d90d93a6)">
     <use style="fill:#808080;stroke:#808080;" x="333.228541" xlink:href="#m694d1be301" y="68.002096"/>
     <use style="fill:#808080;stroke:#808080;" x="333.228541" xlink:href="#m694d1be301" y="152.561848"/>
    </g>
   </g>
   <g id="line2d_41">
    <path clip-path="url(#pe5d90d93a6)" d="M 340.599083 73.308633 
L 340.599083 159.845391 
" style="fill:none;stroke:#808080;stroke-dasharray:5.55,2.4;stroke-dashoffset:0;stroke-width:1.5;"/>
    <g clip-path="url(#pe5d90d93a6)">
     <use style="fill:#808080;stroke:#808080;" x="340.599083" xlink:href="#m694d1be301" y="73.308633"/>
     <use style="fill:#808080;stroke:#808080;" x="340.599083" xlink:href="#m694d1be301" y="159.845391"/>
    </g>
   </g>
   <g id="line2d_42">
    <path clip-path="url(#pe5d90d93a6)" d="M 347.969624 76.682328 
L 347.969624 164.17375 
" style="fill:none;stroke:#808080;stroke-dasharray:5.55,2.4;stroke-dashoffset:0;stroke-width:1.5;"/>
    <g clip-path="url(#pe5d90d93a6)">
     <use style="fill:#808080;stroke:#808080;" x="347.969624" xlink:href="#m694d1be301" y="76.682328"/>
     <use style="fill:#808080;stroke:#808080;" x="347.969624" xlink:href="#m694d1be301" y="164.17375"/>
    </g>
   </g>
   <g id="line2d_43">
    <path clip-path="url(#pe5d90d93a6)" d="M 355.340166 79.204499 
L 355.340166 166.554316 
" style="fill:none;stroke:#808080;stroke-dasharray:5.55,2.4;stroke-dashoffset:0;stroke-width:1.5;"/>
    <g clip-path="url(#pe5d90d93a6)">
     <use style="fill:#808080;stroke:#808080;" x="355.340166" xlink:href="#m694d1be301" y="79.204499"/>
     <use style="fill:#808080;stroke:#808080;" x="355.340166" xlink:href="#m694d1be301" y="166.554316"/>
    </g>
   </g>
   <g id="line2d_44">
    <path clip-path="url(#pe5d90d93a6)" d="M 362.710708 81.515124 
L 362.710708 169.404084 
" style="fill:none;stroke:#808080;stroke-dasharray:5.55,2.4;stroke-dashoffset:0;stroke-width:1.5;"/>
    <g clip-path="url(#pe5d90d93a6)">
     <use style="fill:#808080;stroke:#808080;" x="362.710708" xlink:href="#m694d1be301" y="81.515124"/>
     <use style="fill:#808080;stroke:#808080;" x="362.710708" xlink:href="#m694d1be301" y="169.404084"/>
    </g>
   </g>
   <g id="line2d_45">
    <path clip-path="url(#pe5d90d93a6)" d="M 370.081249 82.824374 
L 370.081249 171.227733 
" style="fill:none;stroke:#0000ff;stroke-dasharray:5.55,2.4;stroke-dashoffset:0;stroke-width:1.5;"/>
    <g clip-path="url(#pe5d90d93a6)">
     <use style="fill:#0000ff;stroke:#0000ff;" x="370.081249" xlink:href="#mf2694c79af" y="82.824374"/>
     <use style="fill:#0000ff;stroke:#0000ff;" x="370.081249" xlink:href="#mf2694c79af" y="171.227733"/>
    </g>
   </g>
   <g id="line2d_46">
    <path clip-path="url(#pe5d90d93a6)" d="M 377.451791 82.824374 
L 377.451791 171.838799 
" style="fill:none;stroke:#0000ff;stroke-dasharray:5.55,2.4;stroke-dashoffset:0;stroke-width:1.5;"/>
    <g clip-path="url(#pe5d90d93a6)">
     <use style="fill:#0000ff;stroke:#0000ff;" x="377.451791" xlink:href="#mf2694c79af" y="82.824374"/>
     <use style="fill:#0000ff;stroke:#0000ff;" x="377.451791" xlink:href="#mf2694c79af" y="171.838799"/>
    </g>
   </g>
   <g id="line2d_47">
    <path clip-path="url(#pe5d90d93a6)" d="M 384.822332 82.824374 
L 384.822332 174.258923 
" style="fill:none;stroke:#0000ff;stroke-dasharray:5.55,2.4;stroke-dashoffset:0;stroke-width:1.5;"/>
    <g clip-path="url(#pe5d90d93a6)">
     <use style="fill:#0000ff;stroke:#0000ff;" x="384.822332" xlink:href="#mf2694c79af" y="82.824374"/>
     <use style="fill:#0000ff;stroke:#0000ff;" x="384.822332" xlink:href="#mf2694c79af" y="174.258923"/>
    </g>
   </g>
   <g id="text_3">
    <!-- Resampled discharge time series -->
    <defs>
     <path d="M 18.109375 8.203125 
L 18.109375 -20.796875 
L 9.078125 -20.796875 
L 9.078125 54.6875 
L 18.109375 54.6875 
L 18.109375 46.390625 
Q 20.953125 51.265625 25.265625 53.625 
Q 29.59375 56 35.59375 56 
Q 45.5625 56 51.78125 48.09375 
Q 58.015625 40.1875 58.015625 27.296875 
Q 58.015625 14.40625 51.78125 6.484375 
Q 45.5625 -1.421875 35.59375 -1.421875 
Q 29.59375 -1.421875 25.265625 0.953125 
Q 20.953125 3.328125 18.109375 8.203125 
z
M 48.6875 27.296875 
Q 48.6875 37.203125 44.609375 42.84375 
Q 40.53125 48.484375 33.40625 48.484375 
Q 26.265625 48.484375 22.1875 42.84375 
Q 18.109375 37.203125 18.109375 27.296875 
Q 18.109375 17.390625 22.1875 11.75 
Q 26.265625 6.109375 33.40625 6.109375 
Q 40.53125 6.109375 44.609375 11.75 
Q 48.6875 17.390625 48.6875 27.296875 
z
" id="DejaVuSans-112"/>
    </defs>
    <g transform="translate(214.930313 16.318125)scale(0.12 -0.12)">
     <use xlink:href="#DejaVuSans-82"/>
     <use x="69.419922" xlink:href="#DejaVuSans-101"/>
     <use x="130.943359" xlink:href="#DejaVuSans-115"/>
     <use x="183.042969" xlink:href="#DejaVuSans-97"/>
     <use x="244.322266" xlink:href="#DejaVuSans-109"/>
     <use x="341.734375" xlink:href="#DejaVuSans-112"/>
     <use x="405.210938" xlink:href="#DejaVuSans-108"/>
     <use x="432.994141" xlink:href="#DejaVuSans-101"/>
     <use x="494.517578" xlink:href="#DejaVuSans-100"/>
     <use x="557.994141" xlink:href="#DejaVuSans-32"/>
     <use x="589.78125" xlink:href="#DejaVuSans-100"/>
     <use x="653.257812" xlink:href="#DejaVuSans-105"/>
     <use x="681.041016" xlink:href="#DejaVuSans-115"/>
     <use x="733.140625" xlink:href="#DejaVuSans-99"/>
     <use x="788.121094" xlink:href="#DejaVuSans-104"/>
     <use x="851.5" xlink:href="#DejaVuSans-97"/>
     <use x="912.779297" xlink:href="#DejaVuSans-114"/>
     <use x="953.876953" xlink:href="#DejaVuSans-103"/>
     <use x="1017.353516" xlink:href="#DejaVuSans-101"/>
     <use x="1078.876953" xlink:href="#DejaVuSans-32"/>
     <use x="1110.664062" xlink:href="#DejaVuSans-116"/>
     <use x="1149.873047" xlink:href="#DejaVuSans-105"/>
     <use x="1177.65625" xlink:href="#DejaVuSans-109"/>
     <use x="1275.068359" xlink:href="#DejaVuSans-101"/>
     <use x="1336.591797" xlink:href="#DejaVuSans-32"/>
     <use x="1368.378906" xlink:href="#DejaVuSans-115"/>
     <use x="1420.478516" xlink:href="#DejaVuSans-101"/>
     <use x="1482.001953" xlink:href="#DejaVuSans-114"/>
     <use x="1523.115234" xlink:href="#DejaVuSans-105"/>
     <use x="1550.898438" xlink:href="#DejaVuSans-101"/>
     <use x="1612.421875" xlink:href="#DejaVuSans-115"/>
    </g>
   </g>
   <g id="text_4">
    <!-- Reference discharge time series -->
    <g transform="translate(217.8 197.718125)scale(0.12 -0.12)">
     <use xlink:href="#DejaVuSans-82"/>
     <use x="69.419922" xlink:href="#DejaVuSans-101"/>
     <use x="130.943359" xlink:href="#DejaVuSans-102"/>
     <use x="166.148438" xlink:href="#DejaVuSans-101"/>
     <use x="227.671875" xlink:href="#DejaVuSans-114"/>
     <use x="268.753906" xlink:href="#DejaVuSans-101"/>
     <use x="330.277344" xlink:href="#DejaVuSans-110"/>
     <use x="393.65625" xlink:href="#DejaVuSans-99"/>
     <use x="448.636719" xlink:href="#DejaVuSans-101"/>
     <use x="510.160156" xlink:href="#DejaVuSans-32"/>
     <use x="541.947266" xlink:href="#DejaVuSans-100"/>
     <use x="605.423828" xlink:href="#DejaVuSans-105"/>
     <use x="633.207031" xlink:href="#DejaVuSans-115"/>
     <use x="685.306641" xlink:href="#DejaVuSans-99"/>
     <use x="740.287109" xlink:href="#DejaVuSans-104"/>
     <use x="803.666016" xlink:href="#DejaVuSans-97"/>
     <use x="864.945312" xlink:href="#DejaVuSans-114"/>
     <use x="906.042969" xlink:href="#DejaVuSans-103"/>
     <use x="969.519531" xlink:href="#DejaVuSans-101"/>
     <use x="1031.042969" xlink:href="#DejaVuSans-32"/>
     <use x="1062.830078" xlink:href="#DejaVuSans-116"/>
     <use x="1102.039062" xlink:href="#DejaVuSans-105"/>
     <use x="1129.822266" xlink:href="#DejaVuSans-109"/>
     <use x="1227.234375" xlink:href="#DejaVuSans-101"/>
     <use x="1288.757812" xlink:href="#DejaVuSans-32"/>
     <use x="1320.544922" xlink:href="#DejaVuSans-115"/>
     <use x="1372.644531" xlink:href="#DejaVuSans-101"/>
     <use x="1434.167969" xlink:href="#DejaVuSans-114"/>
     <use x="1475.28125" xlink:href="#DejaVuSans-105"/>
     <use x="1503.064453" xlink:href="#DejaVuSans-101"/>
     <use x="1564.587891" xlink:href="#DejaVuSans-115"/>
    </g>
   </g>
  </g>
 </g>
 <defs>
  <clipPath id="p65c9f6f8cd">
   <rect height="181.4" width="154.044318" x="27.180028" y="13.006875"/>
  </clipPath>
  <clipPath id="pe5d90d93a6">
   <rect height="181.4" width="154.044318" x="237.780028" y="13.006875"/>
  </clipPath>
 </defs>
</svg>
